;Layer: Drill PTH
;EasyEDA v6.1.48, Wed, 22 May 2019 01:04:44 GMT
;0b5e94fe1834435c81e6262c9c592282,60a67b2131f5436da047494d80ae1115,10
;Gerber Generator version 0.2
M48
METRIC,LZ,000.000
;Holesize 1 = 0.305 METRIC
T01C0.305
;Holesize 2 = 0.889 METRIC
T02C0.889
;Holesize 3 = 0.915 METRIC
T03C0.915
;Holesize 4 = 1.000 METRIC
T04C1.000
%
G05
G90
T01
X+085000Y+063499
X+086499Y+014999
X+075000Y+003999
X+094000Y+032999
X+091000Y+032999
X+094000Y+044000
X+090199Y+045799
X+081998Y+043500
X+097100Y+063499
X+068000Y+043399
X+075000Y+044000
X+063300Y+045099
T02
X+038000Y+092350
X+038000Y+089810
X+038000Y+087270
X+038000Y+084730
X+038000Y+082190
X+038000Y+079650
X+038000Y+040849
X+038000Y+038309
X+038000Y+035769
X+038000Y+033229
X+038000Y+030689
X+038000Y+028149
X+082039Y+074460
X+079499Y+074460
X+076959Y+074460
X+097000Y+025659
X+097000Y+077159
X+097000Y+074600
X+097000Y+072039
X+097000Y+069499
X+097000Y+066959
X+097000Y+092350
X+097000Y+089810
X+097000Y+087270
X+097000Y+084730
X+097000Y+082190
X+097000Y+079650
X+097000Y+040849
X+097000Y+038309
X+097000Y+035769
X+097000Y+033229
X+097000Y+030689
X+097000Y+028149
T03
X+051498Y+096997
X+054039Y+097000
X+056579Y+097000
X+059119Y+097000
X+061659Y+097000
X+064199Y+097000
X+066739Y+097000
X+069279Y+097000
X+071819Y+097000
X+074359Y+097000
X+076899Y+097000
X+079439Y+097000
X+081979Y+097000
X+084519Y+097000
X+087059Y+097000
X+051499Y+071600
X+054039Y+071600
X+056579Y+071600
X+059119Y+071600
X+061659Y+071600
X+064199Y+071600
X+066739Y+071600
X+069279Y+071600
X+071819Y+071600
X+074359Y+071600
X+076899Y+071600
X+079439Y+071600
X+081979Y+071600
X+084519Y+071600
X+087059Y+071600
X+059025Y+044599
X+056485Y+044599
X+053945Y+044599
X+051405Y+044599
T04
X+038000Y+077040G85X+038000Y+077039
X+038000Y+074500G85X+038000Y+074499
X+038000Y+071960G85X+038000Y+071959
X+038000Y+069420G85X+038000Y+069419
X+038000Y+066880G85X+038000Y+066879
M30
