G04 Layer: BottomSolderMaskLayer*
G04 EasyEDA v6.1.48, Wed, 22 May 2019 01:04:44 GMT*
G04 0b5e94fe1834435c81e6262c9c592282,60a67b2131f5436da047494d80ae1115,10*
G04 Gerber Generator version 0.2*
G04 Scale: 100 percent, Rotated: No, Reflected: No *
G04 Dimensions in millimeters *
G04 leading zeros omitted , absolute positions ,3 integer and 3 decimal *
%FSLAX33Y33*%
%MOMM*%
G90*
G71D02*

%ADD34C,1.727200*%
%ADD35C,1.778000*%
%ADD39R,3.203194X2.235200*%

%LPD*%
G36*
G01X73395Y40901D02*
G01X73395Y43104D01*
G01X74599Y43104D01*
G01X74599Y40901D01*
G01X73395Y40901D01*
G37*
G36*
G01X74896Y40901D02*
G01X74896Y43104D01*
G01X76098Y43104D01*
G01X76098Y40901D01*
G01X74896Y40901D01*
G37*
G36*
G01X76395Y40901D02*
G01X76395Y43104D01*
G01X77599Y43104D01*
G01X77599Y40901D01*
G01X76395Y40901D01*
G37*
G36*
G01X79895Y40901D02*
G01X79895Y43104D01*
G01X81099Y43104D01*
G01X81099Y40901D01*
G01X79895Y40901D01*
G37*
G36*
G01X81396Y40901D02*
G01X81396Y43104D01*
G01X82600Y43104D01*
G01X82600Y40901D01*
G01X81396Y40901D01*
G37*
G36*
G01X82895Y40901D02*
G01X82895Y43104D01*
G01X84099Y43104D01*
G01X84099Y40901D01*
G01X82895Y40901D01*
G37*
G36*
G01X86395Y40901D02*
G01X86395Y43104D01*
G01X87599Y43104D01*
G01X87599Y40901D01*
G01X86395Y40901D01*
G37*
G36*
G01X87896Y40901D02*
G01X87896Y43104D01*
G01X89100Y43104D01*
G01X89100Y40901D01*
G01X87896Y40901D01*
G37*
G36*
G01X89397Y40901D02*
G01X89397Y43104D01*
G01X90599Y43104D01*
G01X90599Y40901D01*
G01X89397Y40901D01*
G37*
G54D39*
G01X92499Y17500D03*
G01X92499Y20040D03*
G01X92499Y28168D03*
G01X92499Y30708D03*
G01X72000Y19999D03*
G01X72000Y17459D03*
G01X72000Y28127D03*
G01X72000Y30667D03*
G54D34*
G01X51498Y96997D03*
G01X54040Y97000D03*
G01X56580Y97000D03*
G01X59120Y97000D03*
G01X61660Y97000D03*
G01X64200Y97000D03*
G01X66740Y97000D03*
G01X69280Y97000D03*
G01X71820Y97000D03*
G01X74360Y97000D03*
G01X76900Y97000D03*
G01X79440Y97000D03*
G01X81980Y97000D03*
G01X84520Y97000D03*
G01X87060Y97000D03*
G01X51500Y71600D03*
G01X54040Y71600D03*
G01X56580Y71600D03*
G01X59120Y71600D03*
G01X61660Y71600D03*
G01X64200Y71600D03*
G01X66740Y71600D03*
G01X69280Y71600D03*
G01X71820Y71600D03*
G01X74360Y71600D03*
G01X76900Y71600D03*
G01X79440Y71600D03*
G01X81980Y71600D03*
G01X84520Y71600D03*
G01X87060Y71600D03*
G54D35*
G01X37999Y92350D03*
G01X37999Y89810D03*
G01X37999Y87270D03*
G01X37999Y84730D03*
G01X37999Y82190D03*
G36*
G01X37111Y78760D02*
G01X37111Y80538D01*
G01X38889Y80538D01*
G01X38889Y78760D01*
G01X37111Y78760D01*
G37*
G01X37999Y40850D03*
G01X37999Y38310D03*
G01X37999Y35770D03*
G01X37999Y33230D03*
G01X37999Y30690D03*
G36*
G01X37111Y27262D02*
G01X37111Y29040D01*
G01X38889Y29040D01*
G01X38889Y27262D01*
G01X37111Y27262D01*
G37*
G36*
G01X37137Y76177D02*
G01X37137Y77904D01*
G01X38864Y77904D01*
G01X38864Y76177D01*
G01X37137Y76177D01*
G37*
G54D34*
G01X37999Y74499D03*
G01X37999Y71959D03*
G01X37999Y69419D03*
G01X37999Y66879D03*
G54D35*
G01X82039Y74460D03*
G01X79499Y74460D03*
G36*
G01X76070Y73571D02*
G01X76070Y75349D01*
G01X77848Y75349D01*
G01X77848Y73571D01*
G01X76070Y73571D01*
G37*
G36*
G01X96111Y24770D02*
G01X96111Y26548D01*
G01X97889Y26548D01*
G01X97889Y24770D01*
G01X96111Y24770D01*
G37*
G01X97000Y77160D03*
G01X97000Y74600D03*
G01X97000Y72039D03*
G01X97000Y69499D03*
G36*
G01X96111Y66070D02*
G01X96111Y67848D01*
G01X97889Y67848D01*
G01X97889Y66070D01*
G01X96111Y66070D01*
G37*
G01X97000Y92350D03*
G01X97000Y89810D03*
G01X97000Y87270D03*
G01X97000Y84730D03*
G01X97000Y82190D03*
G36*
G01X96111Y78760D02*
G01X96111Y80538D01*
G01X97889Y80538D01*
G01X97889Y78760D01*
G01X96111Y78760D01*
G37*
G01X97000Y40850D03*
G01X97000Y38310D03*
G01X97000Y35770D03*
G01X97000Y33230D03*
G01X97000Y30690D03*
G36*
G01X96111Y27262D02*
G01X96111Y29040D01*
G01X97889Y29040D01*
G01X97889Y27262D01*
G01X96111Y27262D01*
G37*
G36*
G01X58163Y43736D02*
G01X58163Y45463D01*
G01X59890Y45463D01*
G01X59890Y43736D01*
G01X58163Y43736D01*
G37*
G54D34*
G01X56486Y44599D03*
G01X53946Y44599D03*
G01X51406Y44599D03*
M00*
M02*
