G04 Layer: BottomSilkLayer*
G04 EasyEDA v6.1.48, Wed, 22 May 2019 01:04:44 GMT*
G04 0b5e94fe1834435c81e6262c9c592282,60a67b2131f5436da047494d80ae1115,10*
G04 Gerber Generator version 0.2*
G04 Scale: 100 percent, Rotated: No, Reflected: No *
G04 Dimensions in millimeters *
G04 leading zeros omitted , absolute positions ,3 integer and 3 decimal *
%FSLAX33Y33*%
%MOMM*%
G90*
G71D02*

%ADD10C,0.254000*%
%ADD11C,0.499999*%
%ADD23C,0.203200*%
%ADD24C,0.202999*%
%ADD25C,0.299999*%
%ADD27C,0.152400*%
%ADD28C,0.150114*%
%ADD29C,0.150012*%

%LPD*%
G54D23*
G01X39270Y28785D02*
G01X39270Y26880D01*
G01X36730Y26880D01*
G01X36730Y42120D01*
G01X39270Y42120D01*
G54D24*
G01X39270Y42120D02*
G01X39270Y28785D01*
G54D28*
G01X36730Y78310D02*
G01X36730Y65610D01*
G01X39270Y65610D01*
G01X39270Y78310D01*
G01X36730Y78310D01*
G54D23*
G01X77594Y73190D02*
G01X75689Y73190D01*
G01X75689Y75730D01*
G01X83309Y75730D01*
G01X83309Y73190D01*
G54D24*
G01X83309Y73190D02*
G01X77594Y73190D01*
G54D10*
G01X92937Y32120D02*
G01X71347Y32120D01*
G01X71347Y15864D01*
G01X92937Y15864D01*
G01X92937Y32120D01*
G01X84809Y24500D02*
G01X79729Y24500D01*
G01X80491Y23738D01*
G01X79729Y24500D02*
G01X80491Y25262D01*
G54D11*
G01X95800Y41999D02*
G01X95800Y24499D01*
G01X98200Y24499D01*
G01X98200Y41999D01*
G01X95800Y41999D01*
G01X98200Y75900D02*
G01X95700Y75900D01*
G01X95700Y65699D01*
G01X98300Y65699D01*
G01X98300Y75900D01*
G54D27*
G01X34999Y34172D02*
G01X33907Y34172D01*
G01X34999Y34172D02*
G01X34999Y34639D01*
G01X34946Y34794D01*
G01X34895Y34847D01*
G01X34791Y34898D01*
G01X34634Y34898D01*
G01X34530Y34847D01*
G01X34479Y34794D01*
G01X34428Y34639D01*
G01X34428Y34172D01*
G01X34999Y35762D02*
G01X34270Y35241D01*
G01X34270Y36021D01*
G01X34999Y35762D02*
G01X33907Y35762D01*
G01X39408Y49982D02*
G01X40238Y49982D01*
G01X40396Y50032D01*
G01X40446Y50086D01*
G01X40500Y50190D01*
G01X40500Y50294D01*
G01X40446Y50396D01*
G01X40396Y50449D01*
G01X40238Y50500D01*
G01X40137Y50500D01*
G01X39616Y49639D02*
G01X39565Y49535D01*
G01X39408Y49380D01*
G01X40500Y49380D01*
G01X104442Y79511D02*
G01X104442Y78419D01*
G01X103995Y79511D02*
G01X103423Y79511D01*
G01X103736Y79095D01*
G01X103578Y79095D01*
G01X103474Y79041D01*
G01X103423Y78990D01*
G01X103372Y78836D01*
G01X103372Y78731D01*
G01X103423Y78574D01*
G01X103527Y78470D01*
G01X103682Y78419D01*
G01X103840Y78419D01*
G01X103995Y78470D01*
G01X104046Y78523D01*
G01X104099Y78627D01*
G01X102250Y79250D02*
G01X102301Y79354D01*
G01X102405Y79458D01*
G01X102509Y79511D01*
G01X102717Y79511D01*
G01X102821Y79458D01*
G01X102925Y79354D01*
G01X102976Y79250D01*
G01X103030Y79095D01*
G01X103030Y78836D01*
G01X102976Y78678D01*
G01X102925Y78574D01*
G01X102821Y78470D01*
G01X102717Y78419D01*
G01X102509Y78419D01*
G01X102405Y78470D01*
G01X102301Y78574D01*
G01X102250Y78678D01*
G54D29*
G01X51650Y46649D02*
G01X51650Y46699D01*
G01X51600Y46799D01*
G01X51550Y46849D01*
G01X51450Y46899D01*
G01X51250Y46899D01*
G01X51150Y46849D01*
G01X51100Y46799D01*
G01X51050Y46699D01*
G01X51050Y46599D01*
G01X51100Y46499D01*
G01X51200Y46349D01*
G01X51700Y45849D01*
G01X51000Y45849D01*
G01X54149Y46700D02*
G01X54049Y46750D01*
G01X53899Y46900D01*
G01X53899Y45850D01*
G54D27*
G01X76760Y39643D02*
G01X76655Y39694D01*
G01X76551Y39798D01*
G01X76498Y39902D01*
G01X76498Y40111D01*
G01X76551Y40215D01*
G01X76655Y40319D01*
G01X76760Y40370D01*
G01X76915Y40423D01*
G01X77174Y40423D01*
G01X77331Y40370D01*
G01X77435Y40319D01*
G01X77539Y40215D01*
G01X77590Y40111D01*
G01X77590Y39902D01*
G01X77539Y39798D01*
G01X77435Y39694D01*
G01X77331Y39643D01*
G01X77174Y39643D01*
G01X77174Y39902D02*
G01X77174Y39643D01*
G01X76498Y39300D02*
G01X77590Y39300D01*
G01X76498Y39300D02*
G01X77590Y38571D01*
G01X76498Y38571D02*
G01X77590Y38571D01*
G01X76498Y38229D02*
G01X77590Y38229D01*
G01X76498Y38229D02*
G01X76498Y37865D01*
G01X76551Y37710D01*
G01X76655Y37606D01*
G01X76760Y37553D01*
G01X76915Y37502D01*
G01X77174Y37502D01*
G01X77331Y37553D01*
G01X77435Y37606D01*
G01X77539Y37710D01*
G01X77590Y37865D01*
G01X77590Y38229D01*
G01X73498Y40578D02*
G01X74587Y40161D01*
G01X73498Y39745D02*
G01X74587Y40161D01*
G01X73757Y38622D02*
G01X73653Y38675D01*
G01X73549Y38780D01*
G01X73498Y38884D01*
G01X73498Y39092D01*
G01X73549Y39194D01*
G01X73653Y39298D01*
G01X73757Y39351D01*
G01X73914Y39402D01*
G01X74173Y39402D01*
G01X74328Y39351D01*
G01X74433Y39298D01*
G01X74537Y39194D01*
G01X74587Y39092D01*
G01X74587Y38884D01*
G01X74537Y38780D01*
G01X74433Y38675D01*
G01X74328Y38622D01*
G01X73757Y37502D02*
G01X73653Y37553D01*
G01X73549Y37657D01*
G01X73498Y37761D01*
G01X73498Y37969D01*
G01X73549Y38073D01*
G01X73653Y38178D01*
G01X73757Y38228D01*
G01X73914Y38279D01*
G01X74173Y38279D01*
G01X74328Y38228D01*
G01X74433Y38178D01*
G01X74537Y38073D01*
G01X74587Y37969D01*
G01X74587Y37761D01*
G01X74537Y37657D01*
G01X74433Y37553D01*
G01X74328Y37502D01*
G01X83259Y39643D02*
G01X83155Y39694D01*
G01X83051Y39798D01*
G01X82997Y39902D01*
G01X82997Y40111D01*
G01X83051Y40215D01*
G01X83155Y40319D01*
G01X83259Y40370D01*
G01X83414Y40423D01*
G01X83673Y40423D01*
G01X83830Y40370D01*
G01X83934Y40319D01*
G01X84039Y40215D01*
G01X84089Y40111D01*
G01X84089Y39902D01*
G01X84039Y39798D01*
G01X83934Y39694D01*
G01X83830Y39643D01*
G01X83673Y39643D01*
G01X83673Y39902D02*
G01X83673Y39643D01*
G01X82997Y39300D02*
G01X84089Y39300D01*
G01X82997Y39300D02*
G01X84089Y38571D01*
G01X82997Y38571D02*
G01X84089Y38571D01*
G01X82997Y38229D02*
G01X84089Y38229D01*
G01X82997Y38229D02*
G01X82997Y37865D01*
G01X83051Y37710D01*
G01X83155Y37606D01*
G01X83259Y37553D01*
G01X83414Y37502D01*
G01X83673Y37502D01*
G01X83830Y37553D01*
G01X83934Y37606D01*
G01X84039Y37710D01*
G01X84089Y37865D01*
G01X84089Y38229D01*
G01X79998Y40578D02*
G01X81088Y40161D01*
G01X79998Y39745D02*
G01X81088Y40161D01*
G01X80257Y38622D02*
G01X80153Y38675D01*
G01X80049Y38780D01*
G01X79998Y38884D01*
G01X79998Y39092D01*
G01X80049Y39194D01*
G01X80153Y39298D01*
G01X80257Y39351D01*
G01X80415Y39402D01*
G01X80674Y39402D01*
G01X80829Y39351D01*
G01X80933Y39298D01*
G01X81037Y39194D01*
G01X81088Y39092D01*
G01X81088Y38884D01*
G01X81037Y38780D01*
G01X80933Y38675D01*
G01X80829Y38622D01*
G01X80257Y37502D02*
G01X80153Y37553D01*
G01X80049Y37657D01*
G01X79998Y37761D01*
G01X79998Y37969D01*
G01X80049Y38073D01*
G01X80153Y38178D01*
G01X80257Y38228D01*
G01X80415Y38279D01*
G01X80674Y38279D01*
G01X80829Y38228D01*
G01X80933Y38178D01*
G01X81037Y38073D01*
G01X81088Y37969D01*
G01X81088Y37761D01*
G01X81037Y37657D01*
G01X80933Y37553D01*
G01X80829Y37502D01*
G01X74998Y40178D02*
G01X75051Y40282D01*
G01X75156Y40386D01*
G01X75257Y40440D01*
G01X75415Y40491D01*
G01X75674Y40491D01*
G01X75829Y40440D01*
G01X75933Y40386D01*
G01X76037Y40282D01*
G01X76090Y40178D01*
G01X76090Y39970D01*
G01X76037Y39868D01*
G01X75933Y39764D01*
G01X75829Y39711D01*
G01X75674Y39660D01*
G01X75415Y39660D01*
G01X75257Y39711D01*
G01X75156Y39764D01*
G01X75051Y39868D01*
G01X74998Y39970D01*
G01X74998Y40178D01*
G01X74998Y39317D02*
G01X76090Y39317D01*
G01X76090Y39317D02*
G01X76090Y38692D01*
G01X74998Y38349D02*
G01X76090Y38349D01*
G01X74998Y38349D02*
G01X74998Y37674D01*
G01X75519Y38349D02*
G01X75519Y37935D01*
G01X76090Y38349D02*
G01X76090Y37674D01*
G01X74998Y37331D02*
G01X76090Y37331D01*
G01X74998Y37331D02*
G01X74998Y36968D01*
G01X75051Y36813D01*
G01X75156Y36709D01*
G01X75257Y36655D01*
G01X75415Y36604D01*
G01X75674Y36604D01*
G01X75829Y36655D01*
G01X75933Y36709D01*
G01X76037Y36813D01*
G01X76090Y36968D01*
G01X76090Y37331D01*
G01X75206Y36261D02*
G01X75156Y36157D01*
G01X74998Y36002D01*
G01X76090Y36002D01*
G01X81497Y40146D02*
G01X81551Y40250D01*
G01X81655Y40354D01*
G01X81756Y40407D01*
G01X81914Y40458D01*
G01X82173Y40458D01*
G01X82328Y40407D01*
G01X82432Y40354D01*
G01X82536Y40250D01*
G01X82589Y40146D01*
G01X82589Y39937D01*
G01X82536Y39836D01*
G01X82432Y39732D01*
G01X82328Y39678D01*
G01X82173Y39627D01*
G01X81914Y39627D01*
G01X81756Y39678D01*
G01X81655Y39732D01*
G01X81551Y39836D01*
G01X81497Y39937D01*
G01X81497Y40146D01*
G01X81497Y39284D02*
G01X82589Y39284D01*
G01X82589Y39284D02*
G01X82589Y38660D01*
G01X81497Y38317D02*
G01X82589Y38317D01*
G01X81497Y38317D02*
G01X81497Y37641D01*
G01X82018Y38317D02*
G01X82018Y37903D01*
G01X82589Y38317D02*
G01X82589Y37641D01*
G01X81497Y37298D02*
G01X82589Y37298D01*
G01X81497Y37298D02*
G01X81497Y36935D01*
G01X81551Y36780D01*
G01X81655Y36676D01*
G01X81756Y36623D01*
G01X81914Y36572D01*
G01X82173Y36572D01*
G01X82328Y36623D01*
G01X82432Y36676D01*
G01X82536Y36780D01*
G01X82589Y36935D01*
G01X82589Y37298D01*
G01X81756Y36178D02*
G01X81705Y36178D01*
G01X81601Y36125D01*
G01X81551Y36074D01*
G01X81497Y35970D01*
G01X81497Y35761D01*
G01X81551Y35657D01*
G01X81601Y35607D01*
G01X81705Y35553D01*
G01X81810Y35553D01*
G01X81914Y35607D01*
G01X82069Y35708D01*
G01X82589Y36229D01*
G01X82589Y35502D01*
G01X89654Y39954D02*
G01X90590Y39954D01*
G01X90122Y40422D02*
G01X90122Y39486D01*
G01X89499Y39040D02*
G01X89499Y38468D01*
G01X89914Y38780D01*
G01X89914Y38624D01*
G01X89966Y38520D01*
G01X90018Y38468D01*
G01X90174Y38416D01*
G01X90278Y38416D01*
G01X90434Y38468D01*
G01X90538Y38572D01*
G01X90590Y38728D01*
G01X90590Y38884D01*
G01X90538Y39040D01*
G01X90486Y39092D01*
G01X90382Y39144D01*
G01X89499Y38073D02*
G01X90590Y37658D01*
G01X89499Y37242D02*
G01X90590Y37658D01*
G01X89499Y36795D02*
G01X89499Y36224D01*
G01X89914Y36535D01*
G01X89914Y36380D01*
G01X89966Y36276D01*
G01X90018Y36224D01*
G01X90174Y36172D01*
G01X90278Y36172D01*
G01X90434Y36224D01*
G01X90538Y36328D01*
G01X90590Y36484D01*
G01X90590Y36639D01*
G01X90538Y36795D01*
G01X90486Y36847D01*
G01X90382Y36899D01*
G01X86654Y40109D02*
G01X87589Y40109D01*
G01X87122Y40576D02*
G01X87122Y39641D01*
G01X86498Y38675D02*
G01X86498Y39194D01*
G01X86966Y39246D01*
G01X86914Y39194D01*
G01X86862Y39039D01*
G01X86862Y38883D01*
G01X86914Y38727D01*
G01X87018Y38623D01*
G01X87174Y38571D01*
G01X87277Y38571D01*
G01X87433Y38623D01*
G01X87537Y38727D01*
G01X87589Y38883D01*
G01X87589Y39039D01*
G01X87537Y39194D01*
G01X87485Y39246D01*
G01X87381Y39298D01*
G01X86498Y38228D02*
G01X87589Y37812D01*
G01X86498Y37397D02*
G01X87589Y37812D01*
G01X87998Y40458D02*
G01X89089Y40042D01*
G01X87998Y39626D02*
G01X89089Y40042D01*
G01X87998Y39283D02*
G01X88050Y39231D01*
G01X87998Y39180D01*
G01X87946Y39231D01*
G01X87998Y39283D01*
G01X88362Y39231D02*
G01X89089Y39231D01*
G01X88362Y38837D02*
G01X89089Y38837D01*
G01X88569Y38837D02*
G01X88413Y38681D01*
G01X88362Y38577D01*
G01X88362Y38421D01*
G01X88413Y38317D01*
G01X88569Y38265D01*
G01X89089Y38265D01*
G01X107797Y23999D02*
G01X107797Y23222D01*
G01X107747Y23065D01*
G01X107643Y22961D01*
G01X107485Y22910D01*
G01X107381Y22910D01*
G01X107226Y22961D01*
G01X107122Y23065D01*
G01X107071Y23222D01*
G01X107071Y23999D01*
G01X106675Y23740D02*
G01X106675Y23794D01*
G01X106624Y23898D01*
G01X106571Y23949D01*
G01X106466Y23999D01*
G01X106261Y23999D01*
G01X106157Y23949D01*
G01X106103Y23898D01*
G01X106052Y23794D01*
G01X106052Y23690D01*
G01X106103Y23585D01*
G01X106207Y23428D01*
G01X106728Y22910D01*
G01X105999Y22910D01*
G01X108819Y21999D02*
G01X108819Y20908D01*
G01X108819Y21999D02*
G01X108456Y21999D01*
G01X108300Y21947D01*
G01X108196Y21843D01*
G01X108144Y21739D01*
G01X108092Y21584D01*
G01X108092Y21324D01*
G01X108144Y21168D01*
G01X108196Y21064D01*
G01X108300Y20960D01*
G01X108456Y20908D01*
G01X108819Y20908D01*
G01X106970Y21739D02*
G01X107022Y21843D01*
G01X107126Y21947D01*
G01X107229Y21999D01*
G01X107437Y21999D01*
G01X107541Y21947D01*
G01X107645Y21843D01*
G01X107697Y21739D01*
G01X107749Y21584D01*
G01X107749Y21324D01*
G01X107697Y21168D01*
G01X107645Y21064D01*
G01X107541Y20960D01*
G01X107437Y20908D01*
G01X107229Y20908D01*
G01X107126Y20960D01*
G01X107022Y21064D01*
G01X106970Y21168D01*
G01X106627Y21376D02*
G01X105692Y21376D01*
G01X105349Y21999D02*
G01X105349Y20908D01*
G01X105349Y21999D02*
G01X104985Y21999D01*
G01X104829Y21947D01*
G01X104725Y21843D01*
G01X104673Y21739D01*
G01X104621Y21584D01*
G01X104621Y21324D01*
G01X104673Y21168D01*
G01X104725Y21064D01*
G01X104829Y20960D01*
G01X104985Y20908D01*
G01X105349Y20908D01*
G01X103499Y21739D02*
G01X103551Y21843D01*
G01X103655Y21947D01*
G01X103759Y21999D01*
G01X103967Y21999D01*
G01X104071Y21947D01*
G01X104175Y21843D01*
G01X104226Y21739D01*
G01X104278Y21584D01*
G01X104278Y21324D01*
G01X104226Y21168D01*
G01X104175Y21064D01*
G01X104071Y20960D01*
G01X103967Y20908D01*
G01X103759Y20908D01*
G01X103655Y20960D01*
G01X103551Y21064D01*
G01X103499Y21168D01*
G54D23*
G01X89127Y18820D02*
G01X88851Y18091D01*
G01X88574Y18820D02*
G01X88851Y18091D01*
G01X88345Y18404D02*
G01X87720Y18404D01*
G01X87492Y18820D02*
G01X87492Y18091D01*
G01X87263Y18820D02*
G01X87263Y18091D01*
G01X87263Y18820D02*
G01X86778Y18091D01*
G01X86778Y18820D02*
G01X86778Y18091D01*
G01X86240Y18716D02*
G01X86240Y18091D01*
G01X86549Y18404D02*
G01X85927Y18404D01*
G01X89115Y29567D02*
G01X89150Y29638D01*
G01X89219Y29707D01*
G01X89290Y29742D01*
G01X89427Y29742D01*
G01X89496Y29707D01*
G01X89567Y29638D01*
G01X89600Y29567D01*
G01X89635Y29465D01*
G01X89635Y29290D01*
G01X89600Y29186D01*
G01X89567Y29117D01*
G01X89496Y29049D01*
G01X89427Y29013D01*
G01X89290Y29013D01*
G01X89219Y29049D01*
G01X89150Y29117D01*
G01X89115Y29186D01*
G01X89115Y29290D01*
G01X89290Y29290D02*
G01X89115Y29290D01*
G01X88886Y29742D02*
G01X88886Y29013D01*
G01X88886Y29742D02*
G01X88404Y29013D01*
G01X88404Y29742D02*
G01X88404Y29013D01*
G01X88175Y29742D02*
G01X88175Y29013D01*
G01X88175Y29742D02*
G01X87931Y29742D01*
G01X87827Y29707D01*
G01X87758Y29638D01*
G01X87723Y29567D01*
G01X87690Y29465D01*
G01X87690Y29290D01*
G01X87723Y29186D01*
G01X87758Y29117D01*
G01X87827Y29049D01*
G01X87931Y29013D01*
G01X88175Y29013D01*
G01X75907Y29567D02*
G01X75942Y29638D01*
G01X76011Y29707D01*
G01X76082Y29742D01*
G01X76219Y29742D01*
G01X76288Y29707D01*
G01X76359Y29638D01*
G01X76392Y29567D01*
G01X76427Y29465D01*
G01X76427Y29290D01*
G01X76392Y29186D01*
G01X76359Y29117D01*
G01X76288Y29049D01*
G01X76219Y29013D01*
G01X76082Y29013D01*
G01X76011Y29049D01*
G01X75942Y29117D01*
G01X75907Y29186D01*
G01X75907Y29290D01*
G01X76082Y29290D02*
G01X75907Y29290D01*
G01X75678Y29742D02*
G01X75678Y29013D01*
G01X75678Y29742D02*
G01X75196Y29013D01*
G01X75196Y29742D02*
G01X75196Y29013D01*
G01X74967Y29742D02*
G01X74967Y29013D01*
G01X74967Y29742D02*
G01X74723Y29742D01*
G01X74619Y29707D01*
G01X74550Y29638D01*
G01X74515Y29567D01*
G01X74482Y29465D01*
G01X74482Y29290D01*
G01X74515Y29186D01*
G01X74550Y29117D01*
G01X74619Y29049D01*
G01X74723Y29013D01*
G01X74967Y29013D01*
G01X79221Y18912D02*
G01X78945Y18183D01*
G01X78668Y18912D02*
G01X78945Y18183D01*
G01X78439Y18495D02*
G01X77814Y18495D01*
G01X77380Y18912D02*
G01X77449Y18876D01*
G01X77517Y18807D01*
G01X77553Y18736D01*
G01X77586Y18635D01*
G01X77586Y18459D01*
G01X77553Y18355D01*
G01X77517Y18287D01*
G01X77449Y18218D01*
G01X77380Y18183D01*
G01X77240Y18183D01*
G01X77172Y18218D01*
G01X77101Y18287D01*
G01X77068Y18355D01*
G01X77032Y18459D01*
G01X77032Y18635D01*
G01X77068Y18736D01*
G01X77101Y18807D01*
G01X77172Y18876D01*
G01X77240Y18912D01*
G01X77380Y18912D01*
G01X76803Y18912D02*
G01X76803Y18391D01*
G01X76770Y18287D01*
G01X76699Y18218D01*
G01X76595Y18183D01*
G01X76527Y18183D01*
G01X76422Y18218D01*
G01X76354Y18287D01*
G01X76318Y18391D01*
G01X76318Y18912D01*
G01X75848Y18912D02*
G01X75848Y18183D01*
G01X76090Y18912D02*
G01X75605Y18912D01*
G01X75066Y18807D02*
G01X75066Y18183D01*
G01X75376Y18495D02*
G01X74754Y18495D01*
G01X88170Y26999D02*
G01X88170Y25785D01*
G01X88170Y26999D02*
G01X87767Y26999D01*
G01X87594Y26941D01*
G01X87477Y26826D01*
G01X87421Y26709D01*
G01X87363Y26537D01*
G01X87363Y26247D01*
G01X87421Y26074D01*
G01X87477Y25960D01*
G01X87594Y25843D01*
G01X87767Y25785D01*
G01X88170Y25785D01*
G01X86116Y26709D02*
G01X86174Y26826D01*
G01X86288Y26941D01*
G01X86405Y26999D01*
G01X86634Y26999D01*
G01X86751Y26941D01*
G01X86865Y26826D01*
G01X86923Y26709D01*
G01X86982Y26537D01*
G01X86982Y26247D01*
G01X86923Y26074D01*
G01X86865Y25960D01*
G01X86751Y25843D01*
G01X86634Y25785D01*
G01X86405Y25785D01*
G01X86288Y25843D01*
G01X86174Y25960D01*
G01X86116Y26074D01*
G01X85735Y26306D02*
G01X84696Y26306D01*
G01X84315Y26999D02*
G01X84315Y25785D01*
G01X84315Y26999D02*
G01X83911Y26999D01*
G01X83738Y26941D01*
G01X83621Y26826D01*
G01X83563Y26709D01*
G01X83507Y26537D01*
G01X83507Y26247D01*
G01X83563Y26074D01*
G01X83621Y25960D01*
G01X83738Y25843D01*
G01X83911Y25785D01*
G01X84315Y25785D01*
G01X82260Y26709D02*
G01X82316Y26826D01*
G01X82433Y26941D01*
G01X82547Y26999D01*
G01X82778Y26999D01*
G01X82895Y26941D01*
G01X83009Y26826D01*
G01X83068Y26709D01*
G01X83126Y26537D01*
G01X83126Y26247D01*
G01X83068Y26074D01*
G01X83009Y25960D01*
G01X82895Y25843D01*
G01X82778Y25785D01*
G01X82547Y25785D01*
G01X82433Y25843D01*
G01X82316Y25960D01*
G01X82260Y26074D01*
G01X80990Y26999D02*
G01X80990Y25785D01*
G01X80990Y26999D02*
G01X80586Y26999D01*
G01X80411Y26941D01*
G01X80296Y26826D01*
G01X80238Y26709D01*
G01X80182Y26537D01*
G01X80182Y26247D01*
G01X80238Y26074D01*
G01X80296Y25960D01*
G01X80411Y25843D01*
G01X80586Y25785D01*
G01X80990Y25785D01*
G01X79801Y26999D02*
G01X79801Y25785D01*
G01X79801Y26999D02*
G01X79339Y25785D01*
G01X78877Y26999D02*
G01X79339Y25785D01*
G01X78877Y26999D02*
G01X78877Y25785D01*
G01X78150Y26999D02*
G01X78323Y26941D01*
G01X78437Y26768D01*
G01X78496Y26478D01*
G01X78496Y26306D01*
G01X78437Y26016D01*
G01X78323Y25843D01*
G01X78150Y25785D01*
G01X78033Y25785D01*
G01X77861Y25843D01*
G01X77744Y26016D01*
G01X77688Y26306D01*
G01X77688Y26478D01*
G01X77744Y26768D01*
G01X77861Y26941D01*
G01X78033Y26999D01*
G01X78150Y26999D01*
G01X77248Y26709D02*
G01X77248Y26768D01*
G01X77190Y26882D01*
G01X77134Y26941D01*
G01X77017Y26999D01*
G01X76786Y26999D01*
G01X76672Y26941D01*
G01X76613Y26882D01*
G01X76555Y26768D01*
G01X76555Y26651D01*
G01X76613Y26537D01*
G01X76728Y26364D01*
G01X77307Y25785D01*
G01X76499Y25785D01*
G01X94045Y70013D02*
G01X94181Y70149D01*
G01X94386Y70218D01*
G01X94659Y70218D01*
G01X94863Y70149D01*
G01X95000Y70013D01*
G01X95000Y69877D01*
G01X94931Y69740D01*
G01X94863Y69672D01*
G01X94727Y69604D01*
G01X94318Y69468D01*
G01X94181Y69399D01*
G01X94113Y69331D01*
G01X94045Y69195D01*
G01X94045Y68990D01*
G01X94181Y68854D01*
G01X94386Y68786D01*
G01X94659Y68786D01*
G01X94863Y68854D01*
G01X95000Y68990D01*
G01X93595Y70218D02*
G01X93595Y68786D01*
G01X93595Y70218D02*
G01X93118Y70218D01*
G01X92913Y70149D01*
G01X92777Y70013D01*
G01X92709Y69877D01*
G01X92640Y69672D01*
G01X92640Y69331D01*
G01X92709Y69127D01*
G01X92777Y68990D01*
G01X92913Y68854D01*
G01X93118Y68786D01*
G01X93595Y68786D01*
G01X91645Y70218D02*
G01X92190Y68786D01*
G01X91645Y70218D02*
G01X91100Y68786D01*
G01X91986Y69263D02*
G01X91304Y69263D01*
G01X93977Y67377D02*
G01X94045Y67513D01*
G01X94181Y67649D01*
G01X94318Y67718D01*
G01X94590Y67718D01*
G01X94727Y67649D01*
G01X94863Y67513D01*
G01X94931Y67377D01*
G01X95000Y67172D01*
G01X95000Y66831D01*
G01X94931Y66627D01*
G01X94863Y66490D01*
G01X94727Y66354D01*
G01X94590Y66286D01*
G01X94318Y66286D01*
G01X94181Y66354D01*
G01X94045Y66490D01*
G01X93977Y66627D01*
G01X93977Y66831D01*
G01X94318Y66831D02*
G01X93977Y66831D01*
G01X93527Y67718D02*
G01X93527Y66286D01*
G01X93527Y67718D02*
G01X92572Y66286D01*
G01X92572Y67718D02*
G01X92572Y66286D01*
G01X92122Y67718D02*
G01X92122Y66286D01*
G01X92122Y67718D02*
G01X91645Y67718D01*
G01X91440Y67649D01*
G01X91304Y67513D01*
G01X91236Y67377D01*
G01X91168Y67172D01*
G01X91168Y66831D01*
G01X91236Y66627D01*
G01X91304Y66490D01*
G01X91440Y66354D01*
G01X91645Y66286D01*
G01X92122Y66286D01*
G01X94044Y72513D02*
G01X94181Y72650D01*
G01X94385Y72719D01*
G01X94659Y72719D01*
G01X94862Y72650D01*
G01X94999Y72513D01*
G01X94999Y72376D01*
G01X94931Y72241D01*
G01X94862Y72173D01*
G01X94728Y72104D01*
G01X94319Y71967D01*
G01X94181Y71898D01*
G01X94113Y71832D01*
G01X94044Y71695D01*
G01X94044Y71489D01*
G01X94181Y71355D01*
G01X94385Y71286D01*
G01X94659Y71286D01*
G01X94862Y71355D01*
G01X94999Y71489D01*
G01X92571Y72376D02*
G01X92640Y72513D01*
G01X92777Y72650D01*
G01X92914Y72719D01*
G01X93186Y72719D01*
G01X93323Y72650D01*
G01X93458Y72513D01*
G01X93526Y72376D01*
G01X93595Y72173D01*
G01X93595Y71832D01*
G01X93526Y71626D01*
G01X93458Y71489D01*
G01X93323Y71355D01*
G01X93186Y71286D01*
G01X92914Y71286D01*
G01X92777Y71355D01*
G01X92640Y71489D01*
G01X92571Y71626D01*
G01X92122Y72719D02*
G01X92122Y71286D01*
G01X92122Y71286D02*
G01X91304Y71286D01*
G54D25*
G01X92485Y57000D02*
G01X93224Y55060D01*
G01X92485Y57000D02*
G01X91746Y55060D01*
G01X92947Y55707D02*
G01X92023Y55707D01*
G01X91136Y57000D02*
G01X91136Y55060D01*
G01X90527Y55799D02*
G01X89418Y55799D01*
G01X89418Y55984D01*
G01X89511Y56168D01*
G01X89603Y56261D01*
G01X89788Y56353D01*
G01X90065Y56353D01*
G01X90250Y56261D01*
G01X90434Y56076D01*
G01X90527Y55799D01*
G01X90527Y55614D01*
G01X90434Y55337D01*
G01X90250Y55152D01*
G01X90065Y55060D01*
G01X89788Y55060D01*
G01X89603Y55152D01*
G01X89418Y55337D01*
G01X87793Y56076D02*
G01X87885Y56261D01*
G01X88162Y56353D01*
G01X88439Y56353D01*
G01X88716Y56261D01*
G01X88809Y56076D01*
G01X88716Y55891D01*
G01X88532Y55799D01*
G01X88070Y55707D01*
G01X87885Y55614D01*
G01X87793Y55429D01*
G01X87793Y55337D01*
G01X87885Y55152D01*
G01X88162Y55060D01*
G01X88439Y55060D01*
G01X88716Y55152D01*
G01X88809Y55337D01*
G01X86167Y56076D02*
G01X86260Y56261D01*
G01X86537Y56353D01*
G01X86814Y56353D01*
G01X87091Y56261D01*
G01X87183Y56076D01*
G01X87091Y55891D01*
G01X86906Y55799D01*
G01X86444Y55707D01*
G01X86260Y55614D01*
G01X86167Y55429D01*
G01X86167Y55337D01*
G01X86260Y55152D01*
G01X86537Y55060D01*
G01X86814Y55060D01*
G01X87091Y55152D01*
G01X87183Y55337D01*
G01X84449Y56353D02*
G01X84449Y55060D01*
G01X84449Y56076D02*
G01X84634Y56261D01*
G01X84819Y56353D01*
G01X85096Y56353D01*
G01X85280Y56261D01*
G01X85465Y56076D01*
G01X85558Y55799D01*
G01X85558Y55614D01*
G01X85465Y55337D01*
G01X85280Y55152D01*
G01X85096Y55060D01*
G01X84819Y55060D01*
G01X84634Y55152D01*
G01X84449Y55337D01*
G01X83840Y56353D02*
G01X83840Y55060D01*
G01X83840Y55984D02*
G01X83563Y56261D01*
G01X83378Y56353D01*
G01X83101Y56353D01*
G01X82916Y56261D01*
G01X82824Y55984D01*
G01X82824Y55060D01*
G01X81106Y57000D02*
G01X81106Y55060D01*
G01X81106Y56076D02*
G01X81290Y56261D01*
G01X81475Y56353D01*
G01X81752Y56353D01*
G01X81937Y56261D01*
G01X82122Y56076D01*
G01X82214Y55799D01*
G01X82214Y55614D01*
G01X82122Y55337D01*
G01X81937Y55152D01*
G01X81752Y55060D01*
G01X81475Y55060D01*
G01X81290Y55152D01*
G01X81106Y55337D01*
G01X80496Y56353D02*
G01X80496Y55060D01*
G01X80496Y55799D02*
G01X80404Y56076D01*
G01X80219Y56261D01*
G01X80034Y56353D01*
G01X79757Y56353D01*
G01X78686Y56353D02*
G01X78870Y56261D01*
G01X79055Y56076D01*
G01X79148Y55799D01*
G01X79148Y55614D01*
G01X79055Y55337D01*
G01X78870Y55152D01*
G01X78686Y55060D01*
G01X78409Y55060D01*
G01X78224Y55152D01*
G01X78039Y55337D01*
G01X77947Y55614D01*
G01X77947Y55799D01*
G01X78039Y56076D01*
G01X78224Y56261D01*
G01X78409Y56353D01*
G01X78686Y56353D01*
G01X76598Y57000D02*
G01X77337Y55060D01*
G01X76598Y57000D02*
G01X75859Y55060D01*
G01X77060Y55707D02*
G01X76136Y55707D01*
G01X75250Y57000D02*
G01X75250Y55614D01*
G01X75157Y55337D01*
G01X74973Y55152D01*
G01X74696Y55060D01*
G01X74511Y55060D01*
G01X74234Y55152D01*
G01X74049Y55337D01*
G01X73957Y55614D01*
G01X73957Y57000D01*
G01X93224Y54500D02*
G01X93224Y52560D01*
G01X93224Y54500D02*
G01X91931Y52560D01*
G01X91931Y54500D02*
G01X91931Y52560D01*
G01X91321Y53299D02*
G01X90213Y53299D01*
G01X90213Y53484D01*
G01X90305Y53668D01*
G01X90397Y53761D01*
G01X90582Y53853D01*
G01X90859Y53853D01*
G01X91044Y53761D01*
G01X91229Y53576D01*
G01X91321Y53299D01*
G01X91321Y53114D01*
G01X91229Y52837D01*
G01X91044Y52652D01*
G01X90859Y52560D01*
G01X90582Y52560D01*
G01X90397Y52652D01*
G01X90213Y52837D01*
G01X89141Y53853D02*
G01X89326Y53761D01*
G01X89511Y53576D01*
G01X89603Y53299D01*
G01X89603Y53114D01*
G01X89511Y52837D01*
G01X89326Y52652D01*
G01X89141Y52560D01*
G01X88864Y52560D01*
G01X88679Y52652D01*
G01X88495Y52837D01*
G01X88402Y53114D01*
G01X88402Y53299D01*
G01X88495Y53576D01*
G01X88679Y53761D01*
G01X88864Y53853D01*
G01X89141Y53853D01*
G01X87608Y54500D02*
G01X86592Y54500D01*
G01X87146Y53761D01*
G01X86869Y53761D01*
G01X86684Y53668D01*
G01X86592Y53576D01*
G01X86500Y53299D01*
G01X86500Y53114D01*
G01X86592Y52837D01*
G01X86777Y52652D01*
G01X87054Y52560D01*
G01X87331Y52560D01*
G01X87608Y52652D01*
G01X87700Y52745D01*
G01X87793Y52929D01*
G01X93224Y59500D02*
G01X93224Y57560D01*
G01X93224Y59500D02*
G01X92392Y59500D01*
G01X92115Y59407D01*
G01X92023Y59315D01*
G01X91931Y59130D01*
G01X91931Y58853D01*
G01X92023Y58668D01*
G01X92115Y58576D01*
G01X92392Y58484D01*
G01X93224Y58484D01*
G01X91321Y58853D02*
G01X91321Y57560D01*
G01X91321Y58299D02*
G01X91229Y58576D01*
G01X91044Y58761D01*
G01X90859Y58853D01*
G01X90582Y58853D01*
G01X89511Y58853D02*
G01X89695Y58761D01*
G01X89880Y58576D01*
G01X89973Y58299D01*
G01X89973Y58114D01*
G01X89880Y57837D01*
G01X89695Y57652D01*
G01X89511Y57560D01*
G01X89234Y57560D01*
G01X89049Y57652D01*
G01X88864Y57837D01*
G01X88772Y58114D01*
G01X88772Y58299D01*
G01X88864Y58576D01*
G01X89049Y58761D01*
G01X89234Y58853D01*
G01X89511Y58853D01*
G01X87793Y59500D02*
G01X87700Y59407D01*
G01X87608Y59500D01*
G01X87700Y59592D01*
G01X87793Y59500D01*
G01X87700Y58853D02*
G01X87700Y57283D01*
G01X87793Y57006D01*
G01X87978Y56913D01*
G01X88162Y56913D01*
G01X86998Y58299D02*
G01X85890Y58299D01*
G01X85890Y58484D01*
G01X85982Y58668D01*
G01X86075Y58761D01*
G01X86260Y58853D01*
G01X86537Y58853D01*
G01X86721Y58761D01*
G01X86906Y58576D01*
G01X86998Y58299D01*
G01X86998Y58114D01*
G01X86906Y57837D01*
G01X86721Y57652D01*
G01X86537Y57560D01*
G01X86260Y57560D01*
G01X86075Y57652D01*
G01X85890Y57837D01*
G01X84172Y58576D02*
G01X84357Y58761D01*
G01X84542Y58853D01*
G01X84819Y58853D01*
G01X85003Y58761D01*
G01X85188Y58576D01*
G01X85280Y58299D01*
G01X85280Y58114D01*
G01X85188Y57837D01*
G01X85003Y57652D01*
G01X84819Y57560D01*
G01X84542Y57560D01*
G01X84357Y57652D01*
G01X84172Y57837D01*
G01X83285Y59500D02*
G01X83285Y57929D01*
G01X83193Y57652D01*
G01X83008Y57560D01*
G01X82824Y57560D01*
G01X83563Y58853D02*
G01X82916Y58853D01*
G01X79499Y59223D02*
G01X79683Y59407D01*
G01X79960Y59500D01*
G01X80330Y59500D01*
G01X80607Y59407D01*
G01X80792Y59223D01*
G01X80792Y59038D01*
G01X80699Y58853D01*
G01X80607Y58761D01*
G01X80422Y58668D01*
G01X79868Y58484D01*
G01X79683Y58391D01*
G01X79591Y58299D01*
G01X79499Y58114D01*
G01X79499Y57837D01*
G01X79683Y57652D01*
G01X79960Y57560D01*
G01X80330Y57560D01*
G01X80607Y57652D01*
G01X80792Y57837D01*
G01X78889Y58853D02*
G01X78889Y56913D01*
G01X78889Y58576D02*
G01X78704Y58761D01*
G01X78519Y58853D01*
G01X78242Y58853D01*
G01X78058Y58761D01*
G01X77873Y58576D01*
G01X77781Y58299D01*
G01X77781Y58114D01*
G01X77873Y57837D01*
G01X78058Y57652D01*
G01X78242Y57560D01*
G01X78519Y57560D01*
G01X78704Y57652D01*
G01X78889Y57837D01*
G01X76709Y58853D02*
G01X76894Y58761D01*
G01X77079Y58576D01*
G01X77171Y58299D01*
G01X77171Y58114D01*
G01X77079Y57837D01*
G01X76894Y57652D01*
G01X76709Y57560D01*
G01X76432Y57560D01*
G01X76247Y57652D01*
G01X76063Y57837D01*
G01X75970Y58114D01*
G01X75970Y58299D01*
G01X76063Y58576D01*
G01X76247Y58761D01*
G01X76432Y58853D01*
G01X76709Y58853D01*
G01X75361Y58853D02*
G01X75361Y57560D01*
G01X75361Y58484D02*
G01X75084Y58761D01*
G01X74899Y58853D01*
G01X74622Y58853D01*
G01X74437Y58761D01*
G01X74345Y58484D01*
G01X74345Y57560D01*
G01X72719Y58576D02*
G01X72811Y58761D01*
G01X73088Y58853D01*
G01X73366Y58853D01*
G01X73643Y58761D01*
G01X73735Y58576D01*
G01X73643Y58391D01*
G01X73458Y58299D01*
G01X72996Y58207D01*
G01X72811Y58114D01*
G01X72719Y57929D01*
G01X72719Y57837D01*
G01X72811Y57652D01*
G01X73088Y57560D01*
G01X73366Y57560D01*
G01X73643Y57652D01*
G01X73735Y57837D01*
G01X71648Y58853D02*
G01X71832Y58761D01*
G01X72017Y58576D01*
G01X72109Y58299D01*
G01X72109Y58114D01*
G01X72017Y57837D01*
G01X71832Y57652D01*
G01X71648Y57560D01*
G01X71371Y57560D01*
G01X71186Y57652D01*
G01X71001Y57837D01*
G01X70909Y58114D01*
G01X70909Y58299D01*
G01X71001Y58576D01*
G01X71186Y58761D01*
G01X71371Y58853D01*
G01X71648Y58853D01*
G01X70299Y58853D02*
G01X70299Y57560D01*
G01X70299Y58299D02*
G01X70207Y58576D01*
G01X70022Y58761D01*
G01X69837Y58853D01*
G01X69560Y58853D01*
G01X67935Y58576D02*
G01X68027Y58761D01*
G01X68304Y58853D01*
G01X68581Y58853D01*
G01X68858Y58761D01*
G01X68951Y58576D01*
G01X68858Y58391D01*
G01X68674Y58299D01*
G01X68212Y58207D01*
G01X68027Y58114D01*
G01X67935Y57929D01*
G01X67935Y57837D01*
G01X68027Y57652D01*
G01X68304Y57560D01*
G01X68581Y57560D01*
G01X68858Y57652D01*
G01X68951Y57837D01*
G01X67233Y58668D02*
G01X67325Y58576D01*
G01X67233Y58484D01*
G01X67140Y58576D01*
G01X67233Y58668D01*
G01X67233Y58022D02*
G01X67325Y57929D01*
G01X67233Y57837D01*
G01X67140Y57929D01*
G01X67233Y58022D01*
G01X93499Y94608D02*
G01X93038Y92668D01*
G01X92576Y94608D02*
G01X93038Y92668D01*
G01X92576Y94608D02*
G01X92114Y92668D01*
G01X91652Y94608D02*
G01X92114Y92668D01*
G01X91043Y94608D02*
G01X91043Y92668D01*
G01X91043Y93592D02*
G01X90766Y93869D01*
G01X90581Y93961D01*
G01X90304Y93961D01*
G01X90119Y93869D01*
G01X90027Y93592D01*
G01X90027Y92668D01*
G01X89417Y93407D02*
G01X88309Y93407D01*
G01X88309Y93592D01*
G01X88401Y93777D01*
G01X88493Y93869D01*
G01X88678Y93961D01*
G01X88955Y93961D01*
G01X89140Y93869D01*
G01X89325Y93684D01*
G01X89417Y93407D01*
G01X89417Y93222D01*
G01X89325Y92945D01*
G01X89140Y92761D01*
G01X88955Y92668D01*
G01X88678Y92668D01*
G01X88493Y92761D01*
G01X88309Y92945D01*
G01X87699Y93961D02*
G01X87699Y92668D01*
G01X87699Y93592D02*
G01X87422Y93869D01*
G01X87237Y93961D01*
G01X86960Y93961D01*
G01X86775Y93869D01*
G01X86683Y93592D01*
G01X86683Y92668D01*
G01X84374Y94608D02*
G01X84374Y93038D01*
G01X84282Y92761D01*
G01X84097Y92668D01*
G01X83912Y92668D01*
G01X84651Y93961D02*
G01X84005Y93961D01*
G01X83303Y93407D02*
G01X82194Y93407D01*
G01X82194Y93592D01*
G01X82287Y93777D01*
G01X82379Y93869D01*
G01X82564Y93961D01*
G01X82841Y93961D01*
G01X83025Y93869D01*
G01X83210Y93684D01*
G01X83303Y93407D01*
G01X83303Y93222D01*
G01X83210Y92945D01*
G01X83025Y92761D01*
G01X82841Y92668D01*
G01X82564Y92668D01*
G01X82379Y92761D01*
G01X82194Y92945D01*
G01X80569Y93684D02*
G01X80661Y93869D01*
G01X80938Y93961D01*
G01X81215Y93961D01*
G01X81492Y93869D01*
G01X81585Y93684D01*
G01X81492Y93500D01*
G01X81307Y93407D01*
G01X80846Y93315D01*
G01X80661Y93222D01*
G01X80569Y93038D01*
G01X80569Y92945D01*
G01X80661Y92761D01*
G01X80938Y92668D01*
G01X81215Y92668D01*
G01X81492Y92761D01*
G01X81585Y92945D01*
G01X79682Y94608D02*
G01X79682Y93038D01*
G01X79590Y92761D01*
G01X79405Y92668D01*
G01X79220Y92668D01*
G01X79959Y93961D02*
G01X79312Y93961D01*
G01X78610Y94608D02*
G01X78518Y94516D01*
G01X78426Y94608D01*
G01X78518Y94700D01*
G01X78610Y94608D01*
G01X78518Y93961D02*
G01X78518Y92668D01*
G01X77816Y93961D02*
G01X77816Y92668D01*
G01X77816Y93592D02*
G01X77539Y93869D01*
G01X77354Y93961D01*
G01X77077Y93961D01*
G01X76893Y93869D01*
G01X76800Y93592D01*
G01X76800Y92668D01*
G01X75082Y93961D02*
G01X75082Y92484D01*
G01X75175Y92206D01*
G01X75267Y92114D01*
G01X75452Y92022D01*
G01X75729Y92022D01*
G01X75913Y92114D01*
G01X75082Y93684D02*
G01X75267Y93869D01*
G01X75452Y93961D01*
G01X75729Y93961D01*
G01X75913Y93869D01*
G01X76098Y93684D01*
G01X76191Y93407D01*
G01X76191Y93222D01*
G01X76098Y92945D01*
G01X75913Y92761D01*
G01X75729Y92668D01*
G01X75452Y92668D01*
G01X75267Y92761D01*
G01X75082Y92945D01*
G01X73050Y93961D02*
G01X73050Y92668D01*
G01X73050Y93592D02*
G01X72773Y93869D01*
G01X72588Y93961D01*
G01X72311Y93961D01*
G01X72127Y93869D01*
G01X72034Y93592D01*
G01X72034Y92668D01*
G01X72034Y93592D02*
G01X71757Y93869D01*
G01X71572Y93961D01*
G01X71295Y93961D01*
G01X71111Y93869D01*
G01X71018Y93592D01*
G01X71018Y92668D01*
G01X69947Y93961D02*
G01X70131Y93869D01*
G01X70316Y93684D01*
G01X70409Y93407D01*
G01X70409Y93222D01*
G01X70316Y92945D01*
G01X70131Y92761D01*
G01X69947Y92668D01*
G01X69670Y92668D01*
G01X69485Y92761D01*
G01X69300Y92945D01*
G01X69208Y93222D01*
G01X69208Y93407D01*
G01X69300Y93684D01*
G01X69485Y93869D01*
G01X69670Y93961D01*
G01X69947Y93961D01*
G01X68321Y94608D02*
G01X68321Y93038D01*
G01X68229Y92761D01*
G01X68044Y92668D01*
G01X67859Y92668D01*
G01X68598Y93961D02*
G01X67952Y93961D01*
G01X66788Y93961D02*
G01X66973Y93869D01*
G01X67157Y93684D01*
G01X67250Y93407D01*
G01X67250Y93222D01*
G01X67157Y92945D01*
G01X66973Y92761D01*
G01X66788Y92668D01*
G01X66511Y92668D01*
G01X66326Y92761D01*
G01X66141Y92945D01*
G01X66049Y93222D01*
G01X66049Y93407D01*
G01X66141Y93684D01*
G01X66326Y93869D01*
G01X66511Y93961D01*
G01X66788Y93961D01*
G01X65439Y93961D02*
G01X65439Y92668D01*
G01X65439Y93407D02*
G01X65347Y93684D01*
G01X65162Y93869D01*
G01X64978Y93961D01*
G01X64701Y93961D01*
G01X63075Y93684D02*
G01X63167Y93869D01*
G01X63444Y93961D01*
G01X63721Y93961D01*
G01X63999Y93869D01*
G01X64091Y93684D01*
G01X63999Y93500D01*
G01X63814Y93407D01*
G01X63352Y93315D01*
G01X63167Y93222D01*
G01X63075Y93038D01*
G01X63075Y92945D01*
G01X63167Y92761D01*
G01X63444Y92668D01*
G01X63721Y92668D01*
G01X63999Y92761D01*
G01X64091Y92945D01*
G01X60766Y94608D02*
G01X60766Y93038D01*
G01X60673Y92761D01*
G01X60489Y92668D01*
G01X60304Y92668D01*
G01X61043Y93961D02*
G01X60396Y93961D01*
G01X59694Y94608D02*
G01X59694Y92668D01*
G01X59694Y93592D02*
G01X59417Y93869D01*
G01X59233Y93961D01*
G01X58955Y93961D01*
G01X58771Y93869D01*
G01X58678Y93592D01*
G01X58678Y92668D01*
G01X56960Y93961D02*
G01X56960Y92668D01*
G01X56960Y93684D02*
G01X57145Y93869D01*
G01X57330Y93961D01*
G01X57607Y93961D01*
G01X57792Y93869D01*
G01X57976Y93684D01*
G01X58069Y93407D01*
G01X58069Y93222D01*
G01X57976Y92945D01*
G01X57792Y92761D01*
G01X57607Y92668D01*
G01X57330Y92668D01*
G01X57145Y92761D01*
G01X56960Y92945D01*
G01X56074Y94608D02*
G01X56074Y93038D01*
G01X55981Y92761D01*
G01X55797Y92668D01*
G01X55612Y92668D01*
G01X56351Y93961D02*
G01X55704Y93961D01*
G01X52472Y94608D02*
G01X52472Y92668D01*
G01X52472Y93684D02*
G01X52656Y93869D01*
G01X52841Y93961D01*
G01X53118Y93961D01*
G01X53303Y93869D01*
G01X53488Y93684D01*
G01X53580Y93407D01*
G01X53580Y93222D01*
G01X53488Y92945D01*
G01X53303Y92761D01*
G01X53118Y92668D01*
G01X52841Y92668D01*
G01X52656Y92761D01*
G01X52472Y92945D01*
G01X51400Y93961D02*
G01X51585Y93869D01*
G01X51770Y93684D01*
G01X51862Y93407D01*
G01X51862Y93222D01*
G01X51770Y92945D01*
G01X51585Y92761D01*
G01X51400Y92668D01*
G01X51123Y92668D01*
G01X50938Y92761D01*
G01X50754Y92945D01*
G01X50661Y93222D01*
G01X50661Y93407D01*
G01X50754Y93684D01*
G01X50938Y93869D01*
G01X51123Y93961D01*
G01X51400Y93961D01*
G01X48629Y93961D02*
G01X48629Y92668D01*
G01X48629Y93592D02*
G01X48352Y93869D01*
G01X48167Y93961D01*
G01X47890Y93961D01*
G01X47706Y93869D01*
G01X47613Y93592D01*
G01X47613Y92668D01*
G01X46542Y93961D02*
G01X46727Y93869D01*
G01X46911Y93684D01*
G01X47004Y93407D01*
G01X47004Y93222D01*
G01X46911Y92945D01*
G01X46727Y92761D01*
G01X46542Y92668D01*
G01X46265Y92668D01*
G01X46080Y92761D01*
G01X45895Y92945D01*
G01X45803Y93222D01*
G01X45803Y93407D01*
G01X45895Y93684D01*
G01X46080Y93869D01*
G01X46265Y93961D01*
G01X46542Y93961D01*
G01X44916Y94608D02*
G01X44916Y93038D01*
G01X44824Y92761D01*
G01X44639Y92668D01*
G01X44454Y92668D01*
G01X45193Y93961D02*
G01X44547Y93961D01*
G01X93499Y90961D02*
G01X93499Y89668D01*
G01X93499Y90592D02*
G01X93222Y90869D01*
G01X93038Y90961D01*
G01X92761Y90961D01*
G01X92576Y90869D01*
G01X92483Y90592D01*
G01X92483Y89668D01*
G01X91412Y90961D02*
G01X91597Y90869D01*
G01X91782Y90684D01*
G01X91874Y90407D01*
G01X91874Y90223D01*
G01X91782Y89945D01*
G01X91597Y89761D01*
G01X91412Y89668D01*
G01X91135Y89668D01*
G01X90950Y89761D01*
G01X90766Y89945D01*
G01X90673Y90223D01*
G01X90673Y90407D01*
G01X90766Y90684D01*
G01X90950Y90869D01*
G01X91135Y90961D01*
G01X91412Y90961D01*
G01X89786Y91608D02*
G01X89786Y90038D01*
G01X89694Y89761D01*
G01X89509Y89668D01*
G01X89325Y89668D01*
G01X90064Y90961D02*
G01X89417Y90961D01*
G01X87293Y91608D02*
G01X87293Y89668D01*
G01X87293Y90592D02*
G01X87016Y90869D01*
G01X86831Y90961D01*
G01X86554Y90961D01*
G01X86369Y90869D01*
G01X86277Y90592D01*
G01X86277Y89668D01*
G01X84559Y90961D02*
G01X84559Y89668D01*
G01X84559Y90684D02*
G01X84743Y90869D01*
G01X84928Y90961D01*
G01X85205Y90961D01*
G01X85390Y90869D01*
G01X85575Y90684D01*
G01X85667Y90407D01*
G01X85667Y90223D01*
G01X85575Y89945D01*
G01X85390Y89761D01*
G01X85205Y89668D01*
G01X84928Y89668D01*
G01X84743Y89761D01*
G01X84559Y89945D01*
G01X83949Y90961D02*
G01X83395Y89668D01*
G01X82841Y90961D02*
G01X83395Y89668D01*
G01X82231Y90407D02*
G01X81123Y90407D01*
G01X81123Y90592D01*
G01X81215Y90777D01*
G01X81307Y90869D01*
G01X81492Y90961D01*
G01X81769Y90961D01*
G01X81954Y90869D01*
G01X82139Y90684D01*
G01X82231Y90407D01*
G01X82231Y90223D01*
G01X82139Y89945D01*
G01X81954Y89761D01*
G01X81769Y89668D01*
G01X81492Y89668D01*
G01X81307Y89761D01*
G01X81123Y89945D01*
G01X79091Y91239D02*
G01X78906Y91331D01*
G01X78629Y91608D01*
G01X78629Y89668D01*
G01X77096Y91608D02*
G01X78019Y90315D01*
G01X76634Y90315D01*
G01X77096Y91608D02*
G01X77096Y89668D01*
G01X74602Y90961D02*
G01X74602Y89668D01*
G01X74602Y90592D02*
G01X74325Y90869D01*
G01X74140Y90961D01*
G01X73863Y90961D01*
G01X73678Y90869D01*
G01X73586Y90592D01*
G01X73586Y89668D01*
G01X73586Y90592D02*
G01X73309Y90869D01*
G01X73124Y90961D01*
G01X72847Y90961D01*
G01X72662Y90869D01*
G01X72570Y90592D01*
G01X72570Y89668D01*
G01X70852Y90961D02*
G01X70852Y89668D01*
G01X70852Y90684D02*
G01X71037Y90869D01*
G01X71221Y90961D01*
G01X71498Y90961D01*
G01X71683Y90869D01*
G01X71868Y90684D01*
G01X71960Y90407D01*
G01X71960Y90223D01*
G01X71868Y89945D01*
G01X71683Y89761D01*
G01X71498Y89668D01*
G01X71221Y89668D01*
G01X71037Y89761D01*
G01X70852Y89945D01*
G01X69134Y90961D02*
G01X69134Y89484D01*
G01X69226Y89207D01*
G01X69319Y89114D01*
G01X69503Y89022D01*
G01X69780Y89022D01*
G01X69965Y89114D01*
G01X69134Y90684D02*
G01X69319Y90869D01*
G01X69503Y90961D01*
G01X69780Y90961D01*
G01X69965Y90869D01*
G01X70150Y90684D01*
G01X70242Y90407D01*
G01X70242Y90223D01*
G01X70150Y89945D01*
G01X69965Y89761D01*
G01X69780Y89668D01*
G01X69503Y89668D01*
G01X69319Y89761D01*
G01X69134Y89945D01*
G01X68524Y90961D02*
G01X68524Y89668D01*
G01X68524Y90592D02*
G01X68247Y90869D01*
G01X68063Y90961D01*
G01X67785Y90961D01*
G01X67601Y90869D01*
G01X67508Y90592D01*
G01X67508Y89668D01*
G01X66899Y90407D02*
G01X65790Y90407D01*
G01X65790Y90592D01*
G01X65883Y90777D01*
G01X65975Y90869D01*
G01X66160Y90961D01*
G01X66437Y90961D01*
G01X66622Y90869D01*
G01X66806Y90684D01*
G01X66899Y90407D01*
G01X66899Y90223D01*
G01X66806Y89945D01*
G01X66622Y89761D01*
G01X66437Y89668D01*
G01X66160Y89668D01*
G01X65975Y89761D01*
G01X65790Y89945D01*
G01X64904Y91608D02*
G01X64904Y90038D01*
G01X64811Y89761D01*
G01X64627Y89668D01*
G01X64442Y89668D01*
G01X65181Y90961D02*
G01X64534Y90961D01*
G01X62816Y90684D02*
G01X62909Y90869D01*
G01X63186Y90961D01*
G01X63463Y90961D01*
G01X63740Y90869D01*
G01X63832Y90684D01*
G01X63740Y90500D01*
G01X63555Y90407D01*
G01X63093Y90315D01*
G01X62909Y90223D01*
G01X62816Y90038D01*
G01X62816Y89945D01*
G01X62909Y89761D01*
G01X63186Y89668D01*
G01X63463Y89668D01*
G01X63740Y89761D01*
G01X63832Y89945D01*
G01X62114Y90777D02*
G01X62207Y90684D01*
G01X62114Y90592D01*
G01X62022Y90684D01*
G01X62114Y90777D01*
G01X62114Y90130D02*
G01X62207Y90038D01*
G01X62114Y89945D01*
G01X62022Y90038D01*
G01X62114Y90130D01*
G01X93500Y88608D02*
G01X93500Y86668D01*
G01X93500Y88608D02*
G01X92668Y88608D01*
G01X92391Y88516D01*
G01X92299Y88423D01*
G01X92206Y88238D01*
G01X92206Y88054D01*
G01X92299Y87869D01*
G01X92391Y87777D01*
G01X92668Y87684D01*
G01X93500Y87684D01*
G01X92853Y87684D02*
G01X92206Y86668D01*
G01X91597Y88608D02*
G01X91597Y86668D01*
G01X91597Y88608D02*
G01X90766Y88608D01*
G01X90488Y88516D01*
G01X90396Y88423D01*
G01X90304Y88238D01*
G01X90304Y87961D01*
G01X90396Y87777D01*
G01X90488Y87684D01*
G01X90766Y87592D01*
G01X91597Y87592D01*
G01X89694Y88608D02*
G01X89694Y86668D01*
G01X89694Y88608D02*
G01X88955Y86668D01*
G01X88216Y88608D02*
G01X88955Y86668D01*
G01X88216Y88608D02*
G01X88216Y86668D01*
G01X86184Y87777D02*
G01X84522Y87777D01*
G01X86184Y87222D02*
G01X84522Y87222D01*
G01X82490Y87407D02*
G01X81381Y87407D01*
G01X81381Y87592D01*
G01X81474Y87777D01*
G01X81566Y87869D01*
G01X81751Y87961D01*
G01X82028Y87961D01*
G01X82213Y87869D01*
G01X82397Y87684D01*
G01X82490Y87407D01*
G01X82490Y87222D01*
G01X82397Y86945D01*
G01X82213Y86761D01*
G01X82028Y86668D01*
G01X81751Y86668D01*
G01X81566Y86761D01*
G01X81381Y86945D01*
G01X80772Y88608D02*
G01X80772Y86668D01*
G01X80772Y88608D02*
G01X79941Y88608D01*
G01X79663Y88516D01*
G01X79571Y88423D01*
G01X79479Y88238D01*
G01X79479Y88054D01*
G01X79571Y87869D01*
G01X79663Y87777D01*
G01X79941Y87684D01*
G01X80772Y87684D01*
G01X80125Y87684D02*
G01X79479Y86668D01*
G01X78869Y88608D02*
G01X78869Y86668D01*
G01X78869Y88608D02*
G01X78038Y88608D01*
G01X77761Y88516D01*
G01X77668Y88423D01*
G01X77576Y88238D01*
G01X77576Y87961D01*
G01X77668Y87777D01*
G01X77761Y87684D01*
G01X78038Y87592D01*
G01X78869Y87592D01*
G01X76966Y88608D02*
G01X76966Y86668D01*
G01X76966Y88608D02*
G01X76228Y86668D01*
G01X75489Y88608D02*
G01X76228Y86668D01*
G01X75489Y88608D02*
G01X75489Y86668D01*
G01X71794Y88977D02*
G01X73457Y86022D01*
G01X69116Y88977D02*
G01X69300Y88793D01*
G01X69485Y88516D01*
G01X69670Y88146D01*
G01X69762Y87684D01*
G01X69762Y87315D01*
G01X69670Y86853D01*
G01X69485Y86484D01*
G01X69300Y86206D01*
G01X69116Y86022D01*
G01X68506Y87961D02*
G01X68506Y86668D01*
G01X68506Y87592D02*
G01X68229Y87869D01*
G01X68044Y87961D01*
G01X67767Y87961D01*
G01X67582Y87869D01*
G01X67490Y87592D01*
G01X67490Y86668D01*
G01X66418Y87961D02*
G01X66603Y87869D01*
G01X66788Y87684D01*
G01X66880Y87407D01*
G01X66880Y87222D01*
G01X66788Y86945D01*
G01X66603Y86761D01*
G01X66418Y86668D01*
G01X66141Y86668D01*
G01X65957Y86761D01*
G01X65772Y86945D01*
G01X65680Y87222D01*
G01X65680Y87407D01*
G01X65772Y87684D01*
G01X65957Y87869D01*
G01X66141Y87961D01*
G01X66418Y87961D01*
G01X64978Y87130D02*
G01X65070Y87038D01*
G01X64978Y86945D01*
G01X64885Y87038D01*
G01X64978Y87130D01*
G01X62853Y87961D02*
G01X62853Y86668D01*
G01X62853Y87592D02*
G01X62576Y87869D01*
G01X62391Y87961D01*
G01X62114Y87961D01*
G01X61930Y87869D01*
G01X61837Y87592D01*
G01X61837Y86668D01*
G01X61837Y87592D02*
G01X61560Y87869D01*
G01X61375Y87961D01*
G01X61098Y87961D01*
G01X60914Y87869D01*
G01X60821Y87592D01*
G01X60821Y86668D01*
G01X59103Y87961D02*
G01X59103Y86668D01*
G01X59103Y87684D02*
G01X59288Y87869D01*
G01X59473Y87961D01*
G01X59750Y87961D01*
G01X59935Y87869D01*
G01X60119Y87684D01*
G01X60212Y87407D01*
G01X60212Y87222D01*
G01X60119Y86945D01*
G01X59935Y86761D01*
G01X59750Y86668D01*
G01X59473Y86668D01*
G01X59288Y86761D01*
G01X59103Y86945D01*
G01X57385Y87961D02*
G01X57385Y86484D01*
G01X57478Y86206D01*
G01X57570Y86114D01*
G01X57755Y86022D01*
G01X58032Y86022D01*
G01X58217Y86114D01*
G01X57385Y87684D02*
G01X57570Y87869D01*
G01X57755Y87961D01*
G01X58032Y87961D01*
G01X58217Y87869D01*
G01X58401Y87684D01*
G01X58494Y87407D01*
G01X58494Y87222D01*
G01X58401Y86945D01*
G01X58217Y86761D01*
G01X58032Y86668D01*
G01X57755Y86668D01*
G01X57570Y86761D01*
G01X57385Y86945D01*
G01X56776Y87961D02*
G01X56776Y86668D01*
G01X56776Y87592D02*
G01X56499Y87869D01*
G01X56314Y87961D01*
G01X56037Y87961D01*
G01X55852Y87869D01*
G01X55760Y87592D01*
G01X55760Y86668D01*
G01X55150Y87407D02*
G01X54042Y87407D01*
G01X54042Y87592D01*
G01X54134Y87777D01*
G01X54226Y87869D01*
G01X54411Y87961D01*
G01X54688Y87961D01*
G01X54873Y87869D01*
G01X55058Y87684D01*
G01X55150Y87407D01*
G01X55150Y87222D01*
G01X55058Y86945D01*
G01X54873Y86761D01*
G01X54688Y86668D01*
G01X54411Y86668D01*
G01X54226Y86761D01*
G01X54042Y86945D01*
G01X53155Y88608D02*
G01X53155Y87038D01*
G01X53063Y86761D01*
G01X52878Y86668D01*
G01X52693Y86668D01*
G01X53432Y87961D02*
G01X52786Y87961D01*
G01X51068Y87684D02*
G01X51160Y87869D01*
G01X51437Y87961D01*
G01X51714Y87961D01*
G01X51991Y87869D01*
G01X52084Y87684D01*
G01X51991Y87500D01*
G01X51807Y87407D01*
G01X51345Y87315D01*
G01X51160Y87222D01*
G01X51068Y87038D01*
G01X51068Y86945D01*
G01X51160Y86761D01*
G01X51437Y86668D01*
G01X51714Y86668D01*
G01X51991Y86761D01*
G01X52084Y86945D01*
G01X47373Y88977D02*
G01X49036Y86022D01*
G01X45249Y88146D02*
G01X45249Y88238D01*
G01X45156Y88423D01*
G01X45064Y88516D01*
G01X44879Y88608D01*
G01X44510Y88608D01*
G01X44325Y88516D01*
G01X44233Y88423D01*
G01X44140Y88238D01*
G01X44140Y88054D01*
G01X44233Y87869D01*
G01X44417Y87592D01*
G01X45341Y86668D01*
G01X44048Y86668D01*
G01X43438Y88977D02*
G01X43254Y88793D01*
G01X43069Y88516D01*
G01X42884Y88146D01*
G01X42792Y87684D01*
G01X42792Y87315D01*
G01X42884Y86853D01*
G01X43069Y86484D01*
G01X43254Y86206D01*
G01X43438Y86022D01*
G01X93499Y85608D02*
G01X93499Y83668D01*
G01X92206Y85608D02*
G01X93499Y84315D01*
G01X93038Y84777D02*
G01X92206Y83668D01*
G01X91597Y85608D02*
G01X90858Y83668D01*
G01X90119Y85608D02*
G01X90858Y83668D01*
G01X88087Y84777D02*
G01X86424Y84777D01*
G01X88087Y84222D02*
G01X86424Y84222D01*
G01X84392Y85608D02*
G01X84392Y83668D01*
G01X84392Y85608D02*
G01X83561Y85608D01*
G01X83284Y85516D01*
G01X83192Y85423D01*
G01X83099Y85238D01*
G01X83099Y85054D01*
G01X83192Y84869D01*
G01X83284Y84777D01*
G01X83561Y84684D01*
G01X84392Y84684D01*
G01X83746Y84684D02*
G01X83099Y83668D01*
G01X82490Y85608D02*
G01X82490Y83668D01*
G01X82490Y85608D02*
G01X81658Y85608D01*
G01X81381Y85516D01*
G01X81289Y85423D01*
G01X81197Y85238D01*
G01X81197Y84961D01*
G01X81289Y84777D01*
G01X81381Y84684D01*
G01X81658Y84592D01*
G01X82490Y84592D01*
G01X80587Y85608D02*
G01X80587Y83668D01*
G01X80587Y85608D02*
G01X79848Y83668D01*
G01X79109Y85608D02*
G01X79848Y83668D01*
G01X79109Y85608D02*
G01X79109Y83668D01*
G01X75415Y85977D02*
G01X77077Y83022D01*
G01X73383Y85608D02*
G01X72644Y83668D01*
G01X71905Y85608D02*
G01X72644Y83668D01*
G01X70833Y84961D02*
G01X71018Y84869D01*
G01X71203Y84684D01*
G01X71295Y84407D01*
G01X71295Y84222D01*
G01X71203Y83945D01*
G01X71018Y83761D01*
G01X70833Y83668D01*
G01X70556Y83668D01*
G01X70372Y83761D01*
G01X70187Y83945D01*
G01X70095Y84222D01*
G01X70095Y84407D01*
G01X70187Y84684D01*
G01X70372Y84869D01*
G01X70556Y84961D01*
G01X70833Y84961D01*
G01X69485Y85608D02*
G01X69485Y83668D01*
G01X68598Y85608D02*
G01X68598Y84038D01*
G01X68506Y83761D01*
G01X68321Y83668D01*
G01X68136Y83668D01*
G01X68875Y84961D02*
G01X68229Y84961D01*
G01X66511Y84684D02*
G01X66603Y84869D01*
G01X66880Y84961D01*
G01X67157Y84961D01*
G01X67434Y84869D01*
G01X67527Y84684D01*
G01X67434Y84500D01*
G01X67250Y84407D01*
G01X66788Y84315D01*
G01X66603Y84222D01*
G01X66511Y84038D01*
G01X66511Y83945D01*
G01X66603Y83761D01*
G01X66880Y83668D01*
G01X67157Y83668D01*
G01X67434Y83761D01*
G01X67527Y83945D01*
G54D23*
G01X80318Y76250D02*
G01X78886Y76250D01*
G01X80318Y76250D02*
G01X80318Y76863D01*
G01X80250Y77068D01*
G01X80181Y77136D01*
G01X80045Y77204D01*
G01X79909Y77204D01*
G01X79772Y77136D01*
G01X79704Y77068D01*
G01X79636Y76863D01*
G01X79636Y76250D01*
G01X79636Y76727D02*
G01X78886Y77204D01*
G01X79840Y77654D02*
G01X78886Y78404D01*
G01X79840Y78404D02*
G01X78886Y77654D01*
G01X80318Y79263D02*
G01X80250Y79059D01*
G01X80045Y78922D01*
G01X79704Y78854D01*
G01X79499Y78854D01*
G01X79159Y78922D01*
G01X78954Y79059D01*
G01X78886Y79263D01*
G01X78886Y79400D01*
G01X78954Y79604D01*
G01X79159Y79740D01*
G01X79499Y79809D01*
G01X79704Y79809D01*
G01X80045Y79740D01*
G01X80250Y79604D01*
G01X80318Y79400D01*
G01X80318Y79263D01*
G01X77227Y77272D02*
G01X77363Y77204D01*
G01X77500Y77068D01*
G01X77568Y76931D01*
G01X77568Y76659D01*
G01X77500Y76522D01*
G01X77363Y76386D01*
G01X77227Y76318D01*
G01X77022Y76250D01*
G01X76681Y76250D01*
G01X76477Y76318D01*
G01X76340Y76386D01*
G01X76204Y76522D01*
G01X76136Y76659D01*
G01X76136Y76931D01*
G01X76204Y77068D01*
G01X76340Y77204D01*
G01X76477Y77272D01*
G01X76681Y77272D01*
G01X76681Y76931D02*
G01X76681Y77272D01*
G01X77568Y77722D02*
G01X76136Y77722D01*
G01X77568Y77722D02*
G01X76136Y78677D01*
G01X77568Y78677D02*
G01X76136Y78677D01*
G01X77568Y79127D02*
G01X76136Y79127D01*
G01X77568Y79127D02*
G01X77568Y79604D01*
G01X77500Y79809D01*
G01X77363Y79945D01*
G01X77227Y80013D01*
G01X77022Y80081D01*
G01X76681Y80081D01*
G01X76477Y80013D01*
G01X76340Y79945D01*
G01X76204Y79809D01*
G01X76136Y79604D01*
G01X76136Y79127D01*
G01X82818Y76727D02*
G01X81386Y76727D01*
G01X82818Y76250D02*
G01X82818Y77204D01*
G01X82340Y77654D02*
G01X81386Y78404D01*
G01X82340Y78404D02*
G01X81386Y77654D01*
G01X82818Y79263D02*
G01X82750Y79059D01*
G01X82545Y78922D01*
G01X82204Y78854D01*
G01X82000Y78854D01*
G01X81659Y78922D01*
G01X81454Y79059D01*
G01X81386Y79263D01*
G01X81386Y79400D01*
G01X81454Y79604D01*
G01X81659Y79740D01*
G01X82000Y79809D01*
G01X82204Y79809D01*
G01X82545Y79740D01*
G01X82750Y79604D01*
G01X82818Y79400D01*
G01X82818Y79263D01*
G01X95000Y75318D02*
G01X94454Y73886D01*
G01X93909Y75318D02*
G01X94454Y73886D01*
G01X93459Y74840D02*
G01X93459Y73886D01*
G01X93459Y74431D02*
G01X93390Y74636D01*
G01X93254Y74772D01*
G01X93118Y74840D01*
G01X92913Y74840D01*
G01X92463Y74431D02*
G01X91645Y74431D01*
G01X91645Y74568D01*
G01X91713Y74704D01*
G01X91781Y74772D01*
G01X91918Y74840D01*
G01X92122Y74840D01*
G01X92259Y74772D01*
G01X92395Y74636D01*
G01X92463Y74431D01*
G01X92463Y74295D01*
G01X92395Y74090D01*
G01X92259Y73954D01*
G01X92122Y73886D01*
G01X91918Y73886D01*
G01X91781Y73954D01*
G01X91645Y74090D01*
G01X90377Y74840D02*
G01X90377Y73749D01*
G01X90445Y73545D01*
G01X90513Y73477D01*
G01X90650Y73409D01*
G01X90854Y73409D01*
G01X90990Y73477D01*
G01X90377Y74636D02*
G01X90513Y74772D01*
G01X90650Y74840D01*
G01X90854Y74840D01*
G01X90990Y74772D01*
G01X91127Y74636D01*
G01X91195Y74431D01*
G01X91195Y74295D01*
G01X91127Y74090D01*
G01X90990Y73954D01*
G01X90854Y73886D01*
G01X90650Y73886D01*
G01X90513Y73954D01*
G01X90377Y74090D01*
G54D27*
G01X103592Y33201D02*
G01X102500Y33201D01*
G01X103592Y33201D02*
G01X103592Y33669D01*
G01X103539Y33824D01*
G01X103488Y33877D01*
G01X103384Y33928D01*
G01X103226Y33928D01*
G01X103122Y33877D01*
G01X103071Y33824D01*
G01X103020Y33669D01*
G01X103020Y33201D01*
G01X103592Y34375D02*
G01X103592Y34946D01*
G01X103175Y34636D01*
G01X103175Y34791D01*
G01X103122Y34896D01*
G01X103071Y34946D01*
G01X102916Y35000D01*
G01X102812Y35000D01*
G01X102655Y34946D01*
G01X102551Y34842D01*
G01X102500Y34687D01*
G01X102500Y34532D01*
G01X102551Y34375D01*
G01X102604Y34324D01*
G01X102708Y34271D01*
G01X103652Y34976D02*
G01X102562Y34976D01*
G01X103652Y35702D02*
G01X102562Y35702D01*
G01X103134Y34976D02*
G01X103134Y35702D01*
G01X103652Y36045D02*
G01X102562Y36045D01*
G01X103652Y36045D02*
G01X103652Y36411D01*
G01X103601Y36566D01*
G01X103497Y36670D01*
G01X103393Y36721D01*
G01X103238Y36774D01*
G01X102979Y36774D01*
G01X102822Y36721D01*
G01X102717Y36670D01*
G01X102613Y36566D01*
G01X102562Y36411D01*
G01X102562Y36045D01*
G01X103652Y37117D02*
G01X102562Y37117D01*
G01X103652Y37117D02*
G01X103652Y37584D01*
G01X103601Y37739D01*
G01X103551Y37793D01*
G01X103446Y37843D01*
G01X103342Y37843D01*
G01X103238Y37793D01*
G01X103185Y37739D01*
G01X103134Y37584D01*
G01X103134Y37117D01*
G01X103134Y37480D02*
G01X102562Y37843D01*
G01X103030Y38186D02*
G01X103030Y39121D01*
G01X103497Y40089D02*
G01X103601Y40036D01*
G01X103652Y39881D01*
G01X103652Y39776D01*
G01X103601Y39621D01*
G01X103446Y39517D01*
G01X103185Y39464D01*
G01X102926Y39464D01*
G01X102717Y39517D01*
G01X102613Y39621D01*
G01X102562Y39776D01*
G01X102562Y39827D01*
G01X102613Y39985D01*
G01X102717Y40089D01*
G01X102875Y40140D01*
G01X102926Y40140D01*
G01X103081Y40089D01*
G01X103185Y39985D01*
G01X103238Y39827D01*
G01X103238Y39776D01*
G01X103185Y39621D01*
G01X103081Y39517D01*
G01X102926Y39464D01*
G01X103652Y40483D02*
G01X102562Y41212D01*
G01X103652Y41212D02*
G01X102562Y40483D01*
G01X103446Y41554D02*
G01X103497Y41656D01*
G01X103652Y41814D01*
G01X102562Y41814D01*
G01X103860Y43091D02*
G01X102199Y42156D01*
G01X103393Y43485D02*
G01X103446Y43485D01*
G01X103551Y43538D01*
G01X103601Y43589D01*
G01X103652Y43693D01*
G01X103652Y43901D01*
G01X103601Y44006D01*
G01X103551Y44056D01*
G01X103446Y44110D01*
G01X103342Y44110D01*
G01X103238Y44056D01*
G01X103081Y43955D01*
G01X102562Y43434D01*
G01X102562Y44160D01*
G01X102822Y44557D02*
G01X102771Y44503D01*
G01X102717Y44557D01*
G01X102771Y44608D01*
G01X102822Y44557D01*
G01X103652Y45575D02*
G01X103652Y45055D01*
G01X103185Y45004D01*
G01X103238Y45055D01*
G01X103289Y45212D01*
G01X103289Y45367D01*
G01X103238Y45522D01*
G01X103134Y45626D01*
G01X102979Y45679D01*
G01X102875Y45679D01*
G01X102717Y45626D01*
G01X102613Y45522D01*
G01X102562Y45367D01*
G01X102562Y45212D01*
G01X102613Y45055D01*
G01X102667Y45004D01*
G01X102771Y44950D01*
G01X103652Y46540D02*
G01X102926Y46022D01*
G01X102926Y46800D01*
G01X103652Y46540D02*
G01X102562Y46540D01*
G54D25*
G01X31614Y74646D02*
G01X31707Y74831D01*
G01X31891Y75016D01*
G01X32076Y75108D01*
G01X32445Y75108D01*
G01X32630Y75016D01*
G01X32815Y74831D01*
G01X32907Y74646D01*
G01X33000Y74369D01*
G01X33000Y73907D01*
G01X32907Y73630D01*
G01X32815Y73445D01*
G01X32630Y73261D01*
G01X32445Y73168D01*
G01X32076Y73168D01*
G01X31891Y73261D01*
G01X31707Y73445D01*
G01X31614Y73630D01*
G01X31005Y75108D02*
G01X31005Y73168D01*
G01X31005Y74092D02*
G01X30727Y74369D01*
G01X30543Y74461D01*
G01X30266Y74461D01*
G01X30081Y74369D01*
G01X29989Y74092D01*
G01X29989Y73168D01*
G01X29379Y73907D02*
G01X28271Y73907D01*
G01X28271Y74092D01*
G01X28363Y74277D01*
G01X28455Y74369D01*
G01X28640Y74461D01*
G01X28917Y74461D01*
G01X29102Y74369D01*
G01X29287Y74184D01*
G01X29379Y73907D01*
G01X29379Y73722D01*
G01X29287Y73445D01*
G01X29102Y73261D01*
G01X28917Y73168D01*
G01X28640Y73168D01*
G01X28455Y73261D01*
G01X28271Y73445D01*
G01X26553Y74184D02*
G01X26737Y74369D01*
G01X26922Y74461D01*
G01X27199Y74461D01*
G01X27384Y74369D01*
G01X27569Y74184D01*
G01X27661Y73907D01*
G01X27661Y73722D01*
G01X27569Y73445D01*
G01X27384Y73261D01*
G01X27199Y73168D01*
G01X26922Y73168D01*
G01X26737Y73261D01*
G01X26553Y73445D01*
G01X25943Y75108D02*
G01X25943Y73168D01*
G01X25019Y74461D02*
G01X25943Y73538D01*
G01X25574Y73907D02*
G01X24927Y73168D01*
G01X22895Y74461D02*
G01X22895Y73168D01*
G01X22895Y74092D02*
G01X22618Y74369D01*
G01X22433Y74461D01*
G01X22156Y74461D01*
G01X21971Y74369D01*
G01X21879Y74092D01*
G01X21879Y73168D01*
G01X21879Y74092D02*
G01X21602Y74369D01*
G01X21417Y74461D01*
G01X21140Y74461D01*
G01X20955Y74369D01*
G01X20863Y74092D01*
G01X20863Y73168D01*
G01X19792Y74461D02*
G01X19976Y74369D01*
G01X20161Y74184D01*
G01X20253Y73907D01*
G01X20253Y73722D01*
G01X20161Y73445D01*
G01X19976Y73261D01*
G01X19792Y73168D01*
G01X19515Y73168D01*
G01X19330Y73261D01*
G01X19145Y73445D01*
G01X19053Y73722D01*
G01X19053Y73907D01*
G01X19145Y74184D01*
G01X19330Y74369D01*
G01X19515Y74461D01*
G01X19792Y74461D01*
G01X18166Y75108D02*
G01X18166Y73538D01*
G01X18074Y73261D01*
G01X17889Y73168D01*
G01X17704Y73168D01*
G01X18443Y74461D02*
G01X17797Y74461D01*
G01X16633Y74461D02*
G01X16818Y74369D01*
G01X17002Y74184D01*
G01X17095Y73907D01*
G01X17095Y73722D01*
G01X17002Y73445D01*
G01X16818Y73261D01*
G01X16633Y73168D01*
G01X16356Y73168D01*
G01X16171Y73261D01*
G01X15986Y73445D01*
G01X15894Y73722D01*
G01X15894Y73907D01*
G01X15986Y74184D01*
G01X16171Y74369D01*
G01X16356Y74461D01*
G01X16633Y74461D01*
G01X15284Y74461D02*
G01X15284Y73168D01*
G01X15284Y73907D02*
G01X15192Y74184D01*
G01X15007Y74369D01*
G01X14822Y74461D01*
G01X14545Y74461D01*
G01X12513Y75108D02*
G01X12513Y73168D01*
G01X12513Y74184D02*
G01X12329Y74369D01*
G01X12144Y74461D01*
G01X11867Y74461D01*
G01X11682Y74369D01*
G01X11497Y74184D01*
G01X11405Y73907D01*
G01X11405Y73722D01*
G01X11497Y73445D01*
G01X11682Y73261D01*
G01X11867Y73168D01*
G01X12144Y73168D01*
G01X12329Y73261D01*
G01X12513Y73445D01*
G01X10334Y74461D02*
G01X10518Y74369D01*
G01X10703Y74184D01*
G01X10795Y73907D01*
G01X10795Y73722D01*
G01X10703Y73445D01*
G01X10518Y73261D01*
G01X10334Y73168D01*
G01X10056Y73168D01*
G01X9872Y73261D01*
G01X9687Y73445D01*
G01X9595Y73722D01*
G01X9595Y73907D01*
G01X9687Y74184D01*
G01X9872Y74369D01*
G01X10056Y74461D01*
G01X10334Y74461D01*
G01X8985Y75108D02*
G01X8985Y73168D01*
G01X8098Y75108D02*
G01X8098Y73538D01*
G01X8006Y73261D01*
G01X7821Y73168D01*
G01X7637Y73168D01*
G01X8375Y74461D02*
G01X7729Y74461D01*
G01X6011Y74184D02*
G01X6103Y74369D01*
G01X6380Y74461D01*
G01X6658Y74461D01*
G01X6935Y74369D01*
G01X7027Y74184D01*
G01X6935Y74000D01*
G01X6750Y73907D01*
G01X6288Y73815D01*
G01X6103Y73722D01*
G01X6011Y73538D01*
G01X6011Y73445D01*
G01X6103Y73261D01*
G01X6380Y73168D01*
G01X6658Y73168D01*
G01X6935Y73261D01*
G01X7027Y73445D01*
G01X31891Y71461D02*
G01X31891Y70168D01*
G01X31891Y71184D02*
G01X32076Y71369D01*
G01X32261Y71461D01*
G01X32538Y71461D01*
G01X32722Y71369D01*
G01X32907Y71184D01*
G01X33000Y70907D01*
G01X33000Y70722D01*
G01X32907Y70445D01*
G01X32722Y70261D01*
G01X32538Y70168D01*
G01X32261Y70168D01*
G01X32076Y70261D01*
G01X31891Y70445D01*
G01X31282Y71461D02*
G01X31282Y70168D01*
G01X31282Y70907D02*
G01X31189Y71184D01*
G01X31004Y71369D01*
G01X30820Y71461D01*
G01X30543Y71461D01*
G01X29933Y70907D02*
G01X28825Y70907D01*
G01X28825Y71092D01*
G01X28917Y71277D01*
G01X29009Y71369D01*
G01X29194Y71461D01*
G01X29471Y71461D01*
G01X29656Y71369D01*
G01X29841Y71184D01*
G01X29933Y70907D01*
G01X29933Y70722D01*
G01X29841Y70445D01*
G01X29656Y70261D01*
G01X29471Y70168D01*
G01X29194Y70168D01*
G01X29009Y70261D01*
G01X28825Y70445D01*
G01X26793Y71461D02*
G01X26793Y70168D01*
G01X26793Y71092D02*
G01X26516Y71369D01*
G01X26331Y71461D01*
G01X26054Y71461D01*
G01X25869Y71369D01*
G01X25777Y71092D01*
G01X25777Y70168D01*
G01X24705Y71461D02*
G01X24890Y71369D01*
G01X25075Y71184D01*
G01X25167Y70907D01*
G01X25167Y70722D01*
G01X25075Y70445D01*
G01X24890Y70261D01*
G01X24705Y70168D01*
G01X24428Y70168D01*
G01X24243Y70261D01*
G01X24059Y70445D01*
G01X23966Y70722D01*
G01X23966Y70907D01*
G01X24059Y71184D01*
G01X24243Y71369D01*
G01X24428Y71461D01*
G01X24705Y71461D01*
G01X23080Y72108D02*
G01X23080Y70538D01*
G01X22987Y70261D01*
G01X22803Y70168D01*
G01X22618Y70168D01*
G01X23357Y71461D02*
G01X22710Y71461D01*
G01X20309Y72108D02*
G01X20309Y70538D01*
G01X20216Y70261D01*
G01X20032Y70168D01*
G01X19847Y70168D01*
G01X20586Y71461D02*
G01X19939Y71461D01*
G01X18776Y71461D02*
G01X18960Y71369D01*
G01X19145Y71184D01*
G01X19237Y70907D01*
G01X19237Y70722D01*
G01X19145Y70445D01*
G01X18960Y70261D01*
G01X18776Y70168D01*
G01X18498Y70168D01*
G01X18314Y70261D01*
G01X18129Y70445D01*
G01X18037Y70722D01*
G01X18037Y70907D01*
G01X18129Y71184D01*
G01X18314Y71369D01*
G01X18498Y71461D01*
G01X18776Y71461D01*
G01X17427Y71461D02*
G01X17427Y70538D01*
G01X17335Y70261D01*
G01X17150Y70168D01*
G01X16873Y70168D01*
G01X16688Y70261D01*
G01X16411Y70538D01*
G01X16411Y71461D02*
G01X16411Y70168D01*
G01X14693Y71184D02*
G01X14878Y71369D01*
G01X15062Y71461D01*
G01X15340Y71461D01*
G01X15524Y71369D01*
G01X15709Y71184D01*
G01X15801Y70907D01*
G01X15801Y70722D01*
G01X15709Y70445D01*
G01X15524Y70261D01*
G01X15340Y70168D01*
G01X15062Y70168D01*
G01X14878Y70261D01*
G01X14693Y70445D01*
G01X14083Y72108D02*
G01X14083Y70168D01*
G01X14083Y71092D02*
G01X13806Y71369D01*
G01X13622Y71461D01*
G01X13345Y71461D01*
G01X13160Y71369D01*
G01X13067Y71092D01*
G01X13067Y70168D01*
G01X12458Y72108D02*
G01X12365Y72016D01*
G01X12273Y72108D01*
G01X12365Y72200D01*
G01X12458Y72108D01*
G01X12365Y71461D02*
G01X12365Y70168D01*
G01X11664Y71461D02*
G01X11664Y70168D01*
G01X11664Y71092D02*
G01X11386Y71369D01*
G01X11202Y71461D01*
G01X10925Y71461D01*
G01X10740Y71369D01*
G01X10648Y71092D01*
G01X10648Y70168D01*
G01X8930Y71461D02*
G01X8930Y69984D01*
G01X9022Y69706D01*
G01X9114Y69614D01*
G01X9299Y69522D01*
G01X9576Y69522D01*
G01X9761Y69614D01*
G01X8930Y71184D02*
G01X9114Y71369D01*
G01X9299Y71461D01*
G01X9576Y71461D01*
G01X9761Y71369D01*
G01X9946Y71184D01*
G01X10038Y70907D01*
G01X10038Y70722D01*
G01X9946Y70445D01*
G01X9761Y70261D01*
G01X9576Y70168D01*
G01X9299Y70168D01*
G01X9114Y70261D01*
G01X8930Y70445D01*
G01X32722Y69108D02*
G01X32722Y67538D01*
G01X32630Y67261D01*
G01X32445Y67168D01*
G01X32261Y67168D01*
G01X33000Y68461D02*
G01X32353Y68461D01*
G01X31651Y69108D02*
G01X31651Y67168D01*
G01X31651Y68092D02*
G01X31374Y68369D01*
G01X31189Y68461D01*
G01X30912Y68461D01*
G01X30727Y68369D01*
G01X30635Y68092D01*
G01X30635Y67168D01*
G01X30025Y67907D02*
G01X28917Y67907D01*
G01X28917Y68092D01*
G01X29009Y68277D01*
G01X29102Y68369D01*
G01X29286Y68461D01*
G01X29564Y68461D01*
G01X29748Y68369D01*
G01X29933Y68184D01*
G01X30025Y67907D01*
G01X30025Y67722D01*
G01X29933Y67445D01*
G01X29748Y67261D01*
G01X29564Y67168D01*
G01X29286Y67168D01*
G01X29102Y67261D01*
G01X28917Y67445D01*
G01X25869Y68184D02*
G01X25961Y68369D01*
G01X26238Y68461D01*
G01X26516Y68461D01*
G01X26793Y68369D01*
G01X26885Y68184D01*
G01X26793Y68000D01*
G01X26608Y67907D01*
G01X26146Y67815D01*
G01X25961Y67722D01*
G01X25869Y67538D01*
G01X25869Y67445D01*
G01X25961Y67261D01*
G01X26238Y67168D01*
G01X26516Y67168D01*
G01X26793Y67261D01*
G01X26885Y67445D01*
G01X24982Y69108D02*
G01X24982Y67538D01*
G01X24890Y67261D01*
G01X24705Y67168D01*
G01X24521Y67168D01*
G01X25259Y68461D02*
G01X24613Y68461D01*
G01X22803Y68461D02*
G01X22803Y67168D01*
G01X22803Y68184D02*
G01X22987Y68369D01*
G01X23172Y68461D01*
G01X23449Y68461D01*
G01X23634Y68369D01*
G01X23819Y68184D01*
G01X23911Y67907D01*
G01X23911Y67722D01*
G01X23819Y67445D01*
G01X23634Y67261D01*
G01X23449Y67168D01*
G01X23172Y67168D01*
G01X22987Y67261D01*
G01X22803Y67445D01*
G01X21916Y69108D02*
G01X21916Y67538D01*
G01X21824Y67261D01*
G01X21639Y67168D01*
G01X21454Y67168D01*
G01X22193Y68461D02*
G01X21546Y68461D01*
G01X20383Y68461D02*
G01X20567Y68369D01*
G01X20752Y68184D01*
G01X20844Y67907D01*
G01X20844Y67722D01*
G01X20752Y67445D01*
G01X20567Y67261D01*
G01X20383Y67168D01*
G01X20106Y67168D01*
G01X19921Y67261D01*
G01X19736Y67445D01*
G01X19644Y67722D01*
G01X19644Y67907D01*
G01X19736Y68184D01*
G01X19921Y68369D01*
G01X20106Y68461D01*
G01X20383Y68461D01*
G01X19034Y68461D02*
G01X19034Y67168D01*
G01X19034Y67907D02*
G01X18942Y68184D01*
G01X18757Y68369D01*
G01X18572Y68461D01*
G01X18295Y68461D01*
G01X16263Y68461D02*
G01X15894Y67168D01*
G01X15524Y68461D02*
G01X15894Y67168D01*
G01X15524Y68461D02*
G01X15155Y67168D01*
G01X14785Y68461D02*
G01X15155Y67168D01*
G01X14176Y69108D02*
G01X14083Y69016D01*
G01X13991Y69108D01*
G01X14083Y69200D01*
G01X14176Y69108D01*
G01X14083Y68461D02*
G01X14083Y67168D01*
G01X13381Y68461D02*
G01X13381Y67168D01*
G01X13381Y68092D02*
G01X13104Y68369D01*
G01X12920Y68461D01*
G01X12643Y68461D01*
G01X12458Y68369D01*
G01X12365Y68092D01*
G01X12365Y67168D01*
G01X10648Y69108D02*
G01X10648Y67168D01*
G01X10648Y68184D02*
G01X10832Y68369D01*
G01X11017Y68461D01*
G01X11294Y68461D01*
G01X11479Y68369D01*
G01X11664Y68184D01*
G01X11756Y67907D01*
G01X11756Y67722D01*
G01X11664Y67445D01*
G01X11479Y67261D01*
G01X11294Y67168D01*
G01X11017Y67168D01*
G01X10832Y67261D01*
G01X10648Y67445D01*
G01X10038Y69108D02*
G01X9946Y69016D01*
G01X9853Y69108D01*
G01X9946Y69200D01*
G01X10038Y69108D01*
G01X9946Y68461D02*
G01X9946Y67168D01*
G01X9244Y68461D02*
G01X9244Y67168D01*
G01X9244Y68092D02*
G01X8966Y68369D01*
G01X8782Y68461D01*
G01X8505Y68461D01*
G01X8320Y68369D01*
G01X8228Y68092D01*
G01X8228Y67168D01*
G01X6510Y68461D02*
G01X6510Y66984D01*
G01X6602Y66706D01*
G01X6694Y66614D01*
G01X6879Y66522D01*
G01X7156Y66522D01*
G01X7341Y66614D01*
G01X6510Y68184D02*
G01X6694Y68369D01*
G01X6879Y68461D01*
G01X7156Y68461D01*
G01X7341Y68369D01*
G01X7526Y68184D01*
G01X7618Y67907D01*
G01X7618Y67722D01*
G01X7526Y67445D01*
G01X7341Y67261D01*
G01X7156Y67168D01*
G01X6879Y67168D01*
G01X6694Y67261D01*
G01X6510Y67445D01*
G01X4884Y68184D02*
G01X4976Y68369D01*
G01X5253Y68461D01*
G01X5531Y68461D01*
G01X5808Y68369D01*
G01X5900Y68184D01*
G01X5808Y68000D01*
G01X5623Y67907D01*
G01X5161Y67815D01*
G01X4976Y67722D01*
G01X4884Y67538D01*
G01X4884Y67445D01*
G01X4976Y67261D01*
G01X5253Y67168D01*
G01X5531Y67168D01*
G01X5808Y67261D01*
G01X5900Y67445D01*
G01X4182Y69108D02*
G01X4182Y67815D01*
G01X4182Y67353D02*
G01X4274Y67261D01*
G01X4182Y67168D01*
G01X4090Y67261D01*
G01X4182Y67353D01*
G54D23*
G01X43386Y77613D02*
G01X43386Y76386D01*
G01X44000Y76999D02*
G01X42772Y76999D01*
G01X41504Y77818D02*
G01X42186Y77818D01*
G01X42254Y77204D01*
G01X42186Y77272D01*
G01X41981Y77340D01*
G01X41777Y77340D01*
G01X41572Y77272D01*
G01X41436Y77136D01*
G01X41368Y76931D01*
G01X41368Y76795D01*
G01X41436Y76590D01*
G01X41572Y76454D01*
G01X41777Y76386D01*
G01X41981Y76386D01*
G01X42186Y76454D01*
G01X42254Y76522D01*
G01X42322Y76659D01*
G01X40918Y77818D02*
G01X40372Y76386D01*
G01X39827Y77818D02*
G01X40372Y76386D01*
G01X44886Y75113D02*
G01X44886Y73886D01*
G01X45500Y74500D02*
G01X44272Y74500D01*
G01X43686Y75318D02*
G01X42936Y75318D01*
G01X43345Y74772D01*
G01X43140Y74772D01*
G01X43004Y74704D01*
G01X42936Y74636D01*
G01X42868Y74431D01*
G01X42868Y74295D01*
G01X42936Y74090D01*
G01X43072Y73954D01*
G01X43277Y73886D01*
G01X43481Y73886D01*
G01X43686Y73954D01*
G01X43754Y74022D01*
G01X43822Y74159D01*
G01X42418Y75318D02*
G01X41872Y73886D01*
G01X41327Y75318D02*
G01X41872Y73886D01*
G01X40740Y75318D02*
G01X39990Y75318D01*
G01X40400Y74772D01*
G01X40195Y74772D01*
G01X40059Y74704D01*
G01X39990Y74636D01*
G01X39922Y74431D01*
G01X39922Y74295D01*
G01X39990Y74090D01*
G01X40127Y73954D01*
G01X40331Y73886D01*
G01X40536Y73886D01*
G01X40740Y73954D01*
G01X40809Y74022D01*
G01X40877Y74159D01*
G01X42477Y72477D02*
G01X42545Y72613D01*
G01X42681Y72749D01*
G01X42818Y72818D01*
G01X43090Y72818D01*
G01X43227Y72749D01*
G01X43363Y72613D01*
G01X43431Y72477D01*
G01X43500Y72272D01*
G01X43500Y71931D01*
G01X43431Y71727D01*
G01X43363Y71590D01*
G01X43227Y71454D01*
G01X43090Y71386D01*
G01X42818Y71386D01*
G01X42681Y71454D01*
G01X42545Y71590D01*
G01X42477Y71727D01*
G01X42477Y71931D01*
G01X42818Y71931D02*
G01X42477Y71931D01*
G01X42027Y72818D02*
G01X42027Y71386D01*
G01X42027Y72818D02*
G01X41072Y71386D01*
G01X41072Y72818D02*
G01X41072Y71386D01*
G01X40622Y72818D02*
G01X40622Y71386D01*
G01X40622Y72818D02*
G01X40145Y72818D01*
G01X39940Y72749D01*
G01X39804Y72613D01*
G01X39736Y72477D01*
G01X39668Y72272D01*
G01X39668Y71931D01*
G01X39736Y71727D01*
G01X39804Y71590D01*
G01X39940Y71454D01*
G01X40145Y71386D01*
G01X40622Y71386D01*
G01X45977Y69977D02*
G01X46045Y70113D01*
G01X46181Y70249D01*
G01X46318Y70318D01*
G01X46590Y70318D01*
G01X46727Y70249D01*
G01X46863Y70113D01*
G01X46931Y69977D01*
G01X47000Y69772D01*
G01X47000Y69431D01*
G01X46931Y69227D01*
G01X46863Y69090D01*
G01X46727Y68954D01*
G01X46590Y68886D01*
G01X46318Y68886D01*
G01X46181Y68954D01*
G01X46045Y69090D01*
G01X45977Y69227D01*
G01X45977Y69431D01*
G01X46318Y69431D02*
G01X45977Y69431D01*
G01X45527Y70318D02*
G01X45527Y68886D01*
G01X45527Y70318D02*
G01X44913Y70318D01*
G01X44709Y70249D01*
G01X44640Y70181D01*
G01X44572Y70045D01*
G01X44572Y69840D01*
G01X44640Y69704D01*
G01X44709Y69636D01*
G01X44913Y69568D01*
G01X45527Y69568D01*
G01X44122Y70318D02*
G01X44122Y68886D01*
G01X43263Y70318D02*
G01X43400Y70249D01*
G01X43536Y70113D01*
G01X43604Y69977D01*
G01X43672Y69772D01*
G01X43672Y69431D01*
G01X43604Y69227D01*
G01X43536Y69090D01*
G01X43400Y68954D01*
G01X43263Y68886D01*
G01X42990Y68886D01*
G01X42854Y68954D01*
G01X42718Y69090D01*
G01X42650Y69227D01*
G01X42581Y69431D01*
G01X42581Y69772D01*
G01X42650Y69977D01*
G01X42718Y70113D01*
G01X42854Y70249D01*
G01X42990Y70318D01*
G01X43263Y70318D01*
G01X42063Y69977D02*
G01X42063Y70045D01*
G01X41995Y70181D01*
G01X41927Y70249D01*
G01X41790Y70318D01*
G01X41518Y70318D01*
G01X41381Y70249D01*
G01X41313Y70181D01*
G01X41245Y70045D01*
G01X41245Y69909D01*
G01X41313Y69772D01*
G01X41450Y69568D01*
G01X42131Y68886D01*
G01X41177Y68886D01*
G01X39909Y70113D02*
G01X39977Y70249D01*
G01X40181Y70318D01*
G01X40318Y70318D01*
G01X40522Y70249D01*
G01X40659Y70045D01*
G01X40727Y69704D01*
G01X40727Y69363D01*
G01X40659Y69090D01*
G01X40522Y68954D01*
G01X40318Y68886D01*
G01X40250Y68886D01*
G01X40045Y68954D01*
G01X39909Y69090D01*
G01X39840Y69295D01*
G01X39840Y69363D01*
G01X39909Y69568D01*
G01X40045Y69704D01*
G01X40250Y69772D01*
G01X40318Y69772D01*
G01X40522Y69704D01*
G01X40659Y69568D01*
G01X40727Y69363D01*
G01X45977Y67477D02*
G01X46045Y67613D01*
G01X46181Y67749D01*
G01X46318Y67818D01*
G01X46590Y67818D01*
G01X46727Y67749D01*
G01X46863Y67613D01*
G01X46931Y67477D01*
G01X47000Y67272D01*
G01X47000Y66931D01*
G01X46931Y66727D01*
G01X46863Y66590D01*
G01X46727Y66454D01*
G01X46590Y66386D01*
G01X46318Y66386D01*
G01X46181Y66454D01*
G01X46045Y66590D01*
G01X45977Y66727D01*
G01X45977Y66931D01*
G01X46318Y66931D02*
G01X45977Y66931D01*
G01X45527Y67818D02*
G01X45527Y66386D01*
G01X45527Y67818D02*
G01X44913Y67818D01*
G01X44709Y67749D01*
G01X44640Y67681D01*
G01X44572Y67545D01*
G01X44572Y67340D01*
G01X44640Y67204D01*
G01X44709Y67136D01*
G01X44913Y67068D01*
G01X45527Y67068D01*
G01X44122Y67818D02*
G01X44122Y66386D01*
G01X43263Y67818D02*
G01X43400Y67749D01*
G01X43536Y67613D01*
G01X43604Y67477D01*
G01X43672Y67272D01*
G01X43672Y66931D01*
G01X43604Y66727D01*
G01X43536Y66590D01*
G01X43400Y66454D01*
G01X43263Y66386D01*
G01X42990Y66386D01*
G01X42854Y66454D01*
G01X42718Y66590D01*
G01X42650Y66727D01*
G01X42581Y66931D01*
G01X42581Y67272D01*
G01X42650Y67477D01*
G01X42718Y67613D01*
G01X42854Y67749D01*
G01X42990Y67818D01*
G01X43263Y67818D01*
G01X42063Y67477D02*
G01X42063Y67545D01*
G01X41995Y67681D01*
G01X41927Y67749D01*
G01X41790Y67818D01*
G01X41518Y67818D01*
G01X41381Y67749D01*
G01X41313Y67681D01*
G01X41245Y67545D01*
G01X41245Y67409D01*
G01X41313Y67272D01*
G01X41450Y67068D01*
G01X42131Y66386D01*
G01X41177Y66386D01*
G01X39909Y67818D02*
G01X40590Y67818D01*
G01X40659Y67204D01*
G01X40590Y67272D01*
G01X40386Y67340D01*
G01X40181Y67340D01*
G01X39977Y67272D01*
G01X39840Y67136D01*
G01X39772Y66931D01*
G01X39772Y66795D01*
G01X39840Y66590D01*
G01X39977Y66454D01*
G01X40181Y66386D01*
G01X40386Y66386D01*
G01X40590Y66454D01*
G01X40659Y66522D01*
G01X40727Y66659D01*
M00*
M02*
